<svg width="39" height="41" viewBox="0 0 39 41" fill="none" xmlns="http://www.w3.org/2000/svg">
<path d="M2.71426 0V5.42297H0.601562V7.82067H2.71426V12.3621H0.601562V14.7598H2.71426V19.3012H0.601562V21.6989H2.71426V26.2402H0.601562V28.6379H2.71426V33.1793H0.601562V35.577H2.71426V41H38.3984V0H2.71426ZM35.9961 38.6023H5.11661V35.577H7.22923V33.1792H5.11661V28.6379H7.22923V26.2402H5.11661V21.6988H7.22923V19.3011H5.11661V14.7597H7.22923V12.362H5.11661V7.82067H7.22923V5.42297H5.11661V2.39762H35.9961V38.6023Z" fill="#1171C2"/>
<path d="M23.7605 9.35373H31.5508V11.7514H23.7605V9.35373Z" fill="#1171C2"/>
<path d="M23.7605 19.3078H31.5508V21.7055H23.7605V19.3078Z" fill="#1171C2"/>
<path d="M23.7605 30.0478H31.5508V32.4455H23.7605V30.0478Z" fill="#1171C2"/>
<path d="M20.0783 8.3134L18.3796 6.61798L14.4943 10.4957L12.6961 8.70097L10.9973 10.3963L14.4943 13.8864L20.0783 8.3134Z" fill="#1171C2"/>
<path d="M20.0783 18.4149L18.3796 16.7195L14.4943 20.5972L12.6961 18.8025L10.9973 20.4979L14.4943 23.9879L20.0783 18.4149Z" fill="#1171C2"/>
<path d="M20.0783 28.5165L18.3796 26.8212L14.4943 30.6988L12.696 28.9041L10.9973 30.5995L14.4943 34.0895L20.0783 28.5165Z" fill="#1171C2"/>
</svg>
