<svg width="32" height="48" viewBox="0 0 32 48" fill="none" xmlns="http://www.w3.org/2000/svg">
<path d="M7.20592 23.3824C7.20592 21.8924 5.99372 20.6801 4.50372 20.6801C3.01372 20.6801 1.80151 21.8924 1.80151 23.3824C1.80151 24.8723 3.01372 26.0846 4.50372 26.0846C5.99372 26.0846 7.20592 24.8723 7.20592 23.3824ZM4.50372 24.2831C4.00705 24.2831 3.60298 23.879 3.60298 23.3824C3.60298 22.8857 4.00705 22.4816 4.50372 22.4816C5.00038 22.4816 5.40445 22.8857 5.40445 23.3824C5.40445 23.879 5.00038 24.2831 4.50372 24.2831Z" fill="#1171C2"/>
<path d="M0.900735 36.8934H1.80147V46.8015C1.80147 47.2989 2.20473 47.7022 2.70221 47.7022H6.30515C6.80262 47.7022 7.20588 47.2989 7.20588 46.8015V36.8934H8.10662C8.60409 36.8934 9.00735 36.49 9.00735 35.9927V30.5882C9.00735 28.1049 6.987 26.0846 4.50368 26.0846C2.02035 26.0846 0 28.1049 0 30.5882V35.9927C0 36.49 0.403259 36.8934 0.900735 36.8934ZM1.80147 30.5882C1.80147 29.0982 3.01368 27.886 4.50368 27.886C5.99367 27.886 7.20588 29.0982 7.20588 30.5882V35.0919H6.30515C5.80767 35.0919 5.40441 35.4953 5.40441 35.9927V45.9007H3.60294V35.9927C3.60294 35.4953 3.19968 35.0919 2.70221 35.0919H1.80147V30.5882Z" fill="#1171C2"/>
<path d="M12.6104 23.3824C12.6104 24.8723 13.8226 26.0846 15.3126 26.0846C16.8026 26.0846 18.0148 24.8723 18.0148 23.3824C18.0148 21.8924 16.8026 20.6801 15.3126 20.6801C13.8226 20.6801 12.6104 21.8924 12.6104 23.3824ZM16.2133 23.3824C16.2133 23.879 15.8092 24.2831 15.3126 24.2831C14.8159 24.2831 14.4118 23.879 14.4118 23.3824C14.4118 22.8857 14.8159 22.4816 15.3126 22.4816C15.8092 22.4816 16.2133 22.8857 16.2133 23.3824Z" fill="#1171C2"/>
<path d="M10.8088 30.5882V35.9927C10.8088 36.49 11.2121 36.8934 11.7096 36.8934H12.6103V46.8015C12.6103 47.2989 13.0136 47.7022 13.511 47.7022H17.114C17.6115 47.7022 18.0147 47.2989 18.0147 46.8015V36.8934H18.9155C19.4129 36.8934 19.8162 36.49 19.8162 35.9927V30.5882C19.8162 28.1049 17.7958 26.0846 15.3125 26.0846C12.8292 26.0846 10.8088 28.1049 10.8088 30.5882ZM12.6103 30.5882C12.6103 29.0982 13.8225 27.886 15.3125 27.886C16.8025 27.886 18.0147 29.0982 18.0147 30.5882V35.0919H17.114C16.6165 35.0919 16.2132 35.4953 16.2132 35.9927V45.9007H14.4118V35.9927C14.4118 35.4953 14.0085 35.0919 13.511 35.0919H12.6103V30.5882Z" fill="#1171C2"/>
<path d="M28.8235 23.3824C28.8235 21.8924 27.6113 20.6801 26.1213 20.6801C24.6313 20.6801 23.4191 21.8924 23.4191 23.3824C23.4191 24.8723 24.6313 26.0846 26.1213 26.0846C27.6113 26.0846 28.8235 24.8723 28.8235 23.3824ZM26.1213 24.2831C25.6246 24.2831 25.2205 23.879 25.2205 23.3824C25.2205 22.8857 25.6246 22.4816 26.1213 22.4816C26.6179 22.4816 27.022 22.8857 27.022 23.3824C27.022 23.879 26.6179 24.2831 26.1213 24.2831Z" fill="#1171C2"/>
<path d="M21.6177 30.5882V35.9927C21.6177 36.49 22.0209 36.8934 22.5184 36.8934H23.4191V46.8015C23.4191 47.2989 23.8224 47.7022 24.3199 47.7022H27.9228C28.4203 47.7022 28.8236 47.2989 28.8236 46.8015V36.8934H29.7243C30.2218 36.8934 30.625 36.49 30.625 35.9927V30.5882C30.625 28.1049 28.6047 26.0846 26.1214 26.0846C23.638 26.0846 21.6177 28.1049 21.6177 30.5882ZM23.4191 30.5882C23.4191 29.0982 24.6314 27.886 26.1214 27.886C27.6113 27.886 28.8236 29.0982 28.8236 30.5882V35.0919H27.9228C27.4253 35.0919 27.0221 35.4953 27.0221 35.9927V45.9007H25.2206V35.9927C25.2206 35.4953 24.8174 35.0919 24.3199 35.0919H23.4191V30.5882Z" fill="#1171C2"/>
<path d="M20.5459 17.0652L15.0588 11.5696L9.57178 17.0652L8.34668 15.8401L13.8424 10.3531L8.34668 4.86603L9.57178 3.64093L15.0588 9.13662L20.5459 3.64956L21.7624 4.86603L16.2753 10.3531L21.7624 15.8401L20.5459 17.0652Z" fill="#1171C2"/>
</svg>
