<svg width="36" height="37" viewBox="0 0 36 37" fill="none" xmlns="http://www.w3.org/2000/svg">
<path d="M29.2818 34.7807V36.2008H35.7119V26.2602H34.283V34.7807H29.2818Z" fill="#1171C2"/>
<path fill-rule="evenodd" clip-rule="evenodd" d="M35.7119 24.8402V8.50921C35.7119 8.32095 35.6366 8.14032 35.5026 8.00719L28.358 0.906782C28.224 0.773649 28.0423 0.698761 27.8528 0.698761H1.41759C1.02303 0.698761 0.703125 1.01668 0.703125 1.4088V35.4908C0.703125 35.8829 1.02303 36.2008 1.41759 36.2008H27.8528H29.2818V34.7807H27.8528H2.13206V2.11884H27.557L33.2727 7.79917H28.5673V4.24897H27.1384V8.50921C27.1384 8.90133 27.4583 9.21925 27.8528 9.21925H34.283V24.8402V26.2602H35.7119V24.8402Z" fill="#1171C2"/>
<path d="M15.7575 15.3659L11.716 11.3494L15.7575 7.33285C16.0366 7.0555 16.0366 6.60617 15.7575 6.32881C14.4081 4.98743 12.614 4.24896 10.7057 4.24896C8.79743 4.24896 7.00324 4.98743 5.65385 6.32881C4.30411 7.66985 3.56104 9.45292 3.56104 11.3494C3.56104 13.2458 4.30411 15.0289 5.65385 16.3699C7.00324 17.7113 8.79743 18.4498 10.7057 18.4498C12.614 18.4498 14.4081 17.7113 15.7575 16.3699C16.0366 16.0926 16.0366 15.6432 15.7575 15.3659ZM10.7057 17.0297C9.17908 17.0297 7.74387 16.4389 6.66415 15.3659C5.58442 14.2929 4.98997 12.8665 4.98997 11.3494C4.98997 9.83221 5.58442 8.40589 6.66415 7.33285C7.74387 6.25982 9.17908 5.66904 10.7057 5.66904C11.9916 5.66904 13.2126 6.0882 14.211 6.86169L10.2005 10.8474C9.92146 11.1247 9.92146 11.574 10.2005 11.8514L14.211 15.8371C13.2126 16.6105 11.9916 17.0297 10.7057 17.0297Z" fill="#1171C2"/>
<path d="M15.2018 11.8514L19.7484 16.3699C19.888 16.5086 20.0708 16.5779 20.2536 16.5779C20.4364 16.5779 20.6192 16.5086 20.7587 16.3699C22.1085 15.0289 22.8516 13.2458 22.8516 11.3493C22.8516 9.45288 22.1085 7.66981 20.7587 6.32878C20.4797 6.05142 20.0275 6.05142 19.7484 6.32878L15.2018 10.8473C14.9227 11.1247 14.9227 11.574 15.2018 11.8514ZM20.2225 7.86569C21.0009 8.85795 21.4226 10.0714 21.4226 11.3493C21.4226 12.6273 21.0009 13.8407 20.2225 14.833L16.7172 11.3493L20.2225 7.86569Z" fill="#1171C2"/>
<path d="M24.2805 25.5502C24.2805 25.1581 23.9606 24.8402 23.566 24.8402H21.4226V23.4201C21.4226 23.028 21.1027 22.7101 20.7081 22.7101H17.8503C17.4557 22.7101 17.1358 23.028 17.1358 23.4201V26.9703H14.9924C14.5978 26.9703 14.2779 27.2882 14.2779 27.6803V31.2305H12.849V32.6506H14.9924H17.8503H20.7081H23.566H25.7094V31.2305H24.2805V25.5502ZM15.7069 28.3904H17.1358V31.2305H15.7069V28.3904ZM18.5647 27.6803V24.1301H19.9937V25.5502V31.2305H18.5647V27.6803ZM21.4226 31.2305V26.2603H22.8515V31.2305H21.4226Z" fill="#1171C2"/>
<path d="M24.995 12.0594H32.1397V13.4795H24.995V12.0594Z" fill="#1171C2"/>
<path d="M24.995 14.8996H32.1397V16.3197H24.995V14.8996Z" fill="#1171C2"/>
<path d="M24.995 17.7397H32.1397V19.1598H24.995V17.7397Z" fill="#1171C2"/>
</svg>
