<svg width="38" height="38" viewBox="0 0 38 38" fill="none" xmlns="http://www.w3.org/2000/svg">
<path fill-rule="evenodd" clip-rule="evenodd" d="M33.4602 17.8481L33.5623 18.0357C34.9018 20.4915 35.6125 23.2661 35.6232 26.0632L36.92 33.8438H28.5H27.9062H13.6562V34.4375C13.6562 36.0745 12.3245 37.4062 10.6875 37.4062H3.5625C1.92553 37.4062 0.59375 36.0745 0.59375 34.4375V15.4375C0.59375 12.0365 3.20744 9.23756 6.53125 8.93653V7.61722C6.53125 7.14103 6.7165 6.69334 7.05316 6.35728L12.2948 1.11566C12.6314 0.779 13.0791 0.59375 13.5547 0.59375H32.0625C33.0446 0.59375 33.8438 1.39294 33.8438 2.375V10.2481C34.121 10.1537 34.4114 10.0938 34.713 10.0938C36.198 10.0938 37.4062 11.302 37.4062 12.787C37.4062 13.506 37.126 14.1823 36.6178 14.6906L33.4602 17.8481ZM28.6348 27.2543L34.4233 25.6755C34.3532 23.2536 33.7232 20.8644 32.5814 18.7269L28.5 22.8083V23.75H27.3125V19.5938C27.3125 18.9388 26.7799 18.4062 26.125 18.4062V19V23.8189C26.125 24.7255 26.5311 25.5704 27.2389 26.1375L28.6348 27.2543ZM24.9375 18.4062C24.9375 17.7513 25.4701 17.2188 26.125 17.2188C26.2149 17.2188 26.3016 17.2311 26.3883 17.2434L26.4409 17.2508L27.6604 16.0312H26.125C24.8152 16.0312 23.75 17.0964 23.75 18.4062V19C23.75 19.3272 24.0166 19.5938 24.3438 19.5938C24.6709 19.5938 24.9375 19.3272 24.9375 19V18.4062ZM20.4042 25.4006L19.6228 27.3552C19.6033 27.4028 19.5938 27.4526 19.5938 27.5043C19.5938 27.7774 19.893 27.9799 20.1442 27.8778L22.0994 27.0958L20.4042 25.4006ZM21.0271 24.3438L23.1562 26.4729L25.0183 24.6103C24.9684 24.3515 24.9375 24.0878 24.9375 23.8183V20.6714C24.8348 20.7082 24.7285 20.7361 24.6175 20.7533L21.0271 24.3438ZM16.0312 17.2188V19.5938V20.7812V23.1562V24.3438V26.7188V27.9062V30.2812H21.9688H23.1562H25.5312H26.7188H27.9062V28.1912L26.7188 27.2413L25.4671 25.8412L23.4899 27.8184L23.1562 27.952L21.9688 28.427L20.5865 28.9803C20.3989 29.0557 20.2 29.0938 19.9963 29.0938C19.2595 29.0938 18.6437 28.5873 18.4644 27.9062L18.598 26.7188L19.548 24.3438L20.5354 23.1562L22.9104 20.7812L22.6717 19.5938C22.6052 19.4073 22.5625 19.209 22.5625 19V18.4062C22.5625 17.9894 22.6385 17.591 22.7703 17.2188H16.0312ZM35.7776 13.8516C36.062 13.5672 36.2188 13.189 36.2188 12.787C36.2188 11.9569 35.5431 11.2812 34.713 11.2812C34.311 11.2812 33.9328 11.438 33.6484 11.7224L27.6129 17.7579C28.1497 18.1937 28.5 18.8504 28.5 19.5938V21.1292L35.7776 13.8516ZM12.4688 5.9375V2.62081L8.55831 6.53125H11.875C12.2022 6.53125 12.4688 6.26466 12.4688 5.9375ZM12.4688 15.4375C12.4688 12.4913 10.0712 10.0938 7.125 10.0938C4.17881 10.0938 1.78125 12.4913 1.78125 15.4375C1.78125 18.3837 4.17881 20.7812 7.125 20.7812C10.0712 20.7812 12.4688 18.3837 12.4688 15.4375ZM7.125 21.9688C6.05566 21.9688 5.04806 21.7051 4.15625 21.2479V24.3438H10.0938V21.2479C9.20194 21.7051 8.19434 21.9688 7.125 21.9688ZM3.5625 36.2188H10.6875C11.6696 36.2188 12.4688 35.4196 12.4688 34.4375V19.1811C12.1309 19.662 11.7331 20.0978 11.2812 20.4719V24.3438C11.2812 24.9987 10.7487 25.5312 10.0938 25.5312H4.15625C3.50134 25.5312 2.96875 24.9987 2.96875 24.3438V20.4719C2.51691 20.0978 2.11909 19.662 1.78125 19.1811V34.4375C1.78125 35.4196 2.58044 36.2188 3.5625 36.2188ZM13.6562 15.4375V32.6562H27.9062V31.4688H14.8438V16.0312H23.4769C24.13 15.3045 25.0735 14.8438 26.125 14.8438H28.8479L32.6562 11.0354V2.375C32.6562 2.04784 32.3897 1.78125 32.0625 1.78125H13.6562V5.9375C13.6562 6.91956 12.8571 7.71875 11.875 7.71875H7.71875V8.93653C11.0426 9.23756 13.6562 12.0365 13.6562 15.4375ZM29.0938 28.3599V32.6562H35.5175L34.5533 26.8708L29.0938 28.3599Z" fill="#1171C2"/>
<path d="M10.0938 26.7188H4.15625C3.50134 26.7188 2.96875 27.2513 2.96875 27.9062V33.8438C2.96875 34.4987 3.50134 35.0312 4.15625 35.0312H10.0938C10.7487 35.0312 11.2812 34.4987 11.2812 33.8438V27.9062C11.2812 27.2513 10.7487 26.7188 10.0938 26.7188ZM10.0938 29.0938H8.90625V27.9062H10.0938V29.0938ZM7.71875 33.8438H6.53125V32.6562H7.71875V33.8438ZM7.71875 31.4688H6.53125V30.2812H7.71875V31.4688ZM5.34375 31.4688H4.15625V30.2812H5.34375V31.4688ZM6.53125 29.0938V27.9062H7.71875V29.0938H6.53125ZM5.34375 27.9062V29.0938H4.15625V27.9062H5.34375ZM4.15625 32.6562H5.34375V33.8438H4.15625V32.6562ZM8.90625 33.8438V30.2812H10.0943L10.0949 33.8438H8.90625Z" fill="#1171C2"/>
<path d="M14.8438 4.5238H31.4688V5.7113H14.8438V4.5238Z" fill="#1171C2"/>
<path d="M14.8438 7.80359H31.4688V8.99109H14.8438V7.80359Z" fill="#1171C2"/>
</svg>
