<svg width="43" height="42" viewBox="0 0 43 42" fill="none" xmlns="http://www.w3.org/2000/svg">
<g clip-path="url(#clip0)">
<path d="M42.6611 19.2532L34.0328 11.939V1.08296C34.0328 0.555032 33.5906 0.123093 33.0501 0.123093H26.4659C25.9254 0.123093 25.4832 0.555032 25.4832 1.08296V4.30811L22.4859 1.84125C22.1223 1.54369 21.5818 1.54369 21.2182 1.84125L0.345205 19.2436C-0.0478824 19.57 -0.116673 20.1459 0.197797 20.549L2.06496 22.9871C2.38926 23.4094 3.00838 23.4958 3.44077 23.1791C3.47025 23.1599 3.49974 23.1311 3.52922 23.1023L4.05006 22.6128V40.9174C4.05006 41.4453 4.49228 41.8773 5.03278 41.8773H37.6591C38.1996 41.8773 38.6418 41.4453 38.6418 40.9174V22.5072L39.31 23.1023C39.713 23.4574 40.3321 23.4382 40.6957 23.0447C40.7055 23.0351 40.7252 23.0159 40.735 23.0063L42.779 20.5874C43.1132 20.1939 43.064 19.5988 42.6611 19.2532ZM39.88 21.0002L38.3371 19.6084C37.9342 19.2532 37.3151 19.2724 36.9515 19.666C36.7845 19.8387 36.696 20.0787 36.696 20.3187V39.9575H6.02532V20.3571C6.02532 19.8291 5.5831 19.3972 5.04261 19.3972C4.7871 19.3972 4.54142 19.4932 4.36453 19.666L2.97889 20.9618L2.3303 20.1171L21.8569 3.83777L25.837 7.11092C26.2497 7.45647 26.8688 7.39888 27.2226 6.99573C27.37 6.82296 27.4486 6.60219 27.4486 6.38142V2.04282H32.0674V12.371C32.0674 12.6493 32.1952 12.9085 32.4015 13.0909L40.6465 20.0883L39.88 21.0002Z" fill="#1171C2"/>
<path d="M33.5612 26.2312L31.5171 25.3193L29.6893 22.4493C29.0505 21.4511 27.94 20.856 26.7509 20.856H18.6238C17.5429 20.856 16.5208 21.3551 15.8722 22.1902L13.494 25.233L9.5042 26.2984C8.26598 26.6344 7.41101 27.7286 7.40118 28.9764V30.5122C7.40118 32.048 8.68855 33.3342 10.2511 33.3342H10.2904C10.7817 34.5821 12.0691 35.5803 13.5727 35.5803C15.0762 35.5803 16.3636 34.5821 16.855 33.3342H25.4931C25.9844 34.5821 27.2718 35.5803 28.7753 35.5803C30.2789 35.5803 31.5663 34.5821 32.0576 33.3342H32.4016C33.9739 33.3342 35.2122 32.048 35.2122 30.5122V28.7557C35.222 27.671 34.5734 26.6824 33.5612 26.2312ZM13.5727 33.6126C12.7275 33.6126 12.0396 32.9407 12.0396 32.1152C12.0396 31.2897 12.7275 30.6178 13.5727 30.6178C14.4178 30.6178 15.1057 31.2897 15.1057 32.1152C15.1057 32.9503 14.4178 33.6126 13.5727 33.6126ZM28.7753 33.6126C27.9302 33.6126 27.2423 32.9407 27.2423 32.1152C27.2423 31.2897 27.9302 30.6178 28.7753 30.6178C29.6205 30.6178 30.3084 31.2897 30.3084 32.1152C30.2986 32.9503 29.6205 33.6126 28.7753 33.6126ZM33.2467 30.5218C33.2467 30.9922 32.8831 31.4241 32.4016 31.4241H32.1854C31.7628 29.5812 29.8956 28.4293 28.0088 28.8421C26.692 29.13 25.6601 30.1379 25.3653 31.4241H16.9827C16.57 29.5812 14.7126 28.4101 12.8258 28.8133C11.4991 29.0916 10.4673 30.0995 10.1626 31.3857C9.71058 31.3377 9.36662 30.9634 9.36662 30.5218V28.986C9.36662 28.6021 9.63196 28.2565 10.0152 28.1606L14.3195 27.0087C14.5259 26.9511 14.7126 26.8359 14.8404 26.6632L17.4249 23.3516C17.7099 22.9869 18.1521 22.7757 18.614 22.7757H26.7411C27.262 22.7757 27.7435 23.0349 28.0088 23.4668L30.0136 26.5864C30.1118 26.7495 30.2593 26.8743 30.4361 26.9511L32.7357 27.9782C33.06 28.1222 33.2566 28.4293 33.2467 28.7653V30.5218Z" fill="#1171C2"/>
</g>
<defs>
<clipPath id="clip0">
<rect width="43" height="42" fill="white"/>
</clipPath>
</defs>
</svg>
