<svg width="38" height="38" viewBox="0 0 38 38" fill="none" xmlns="http://www.w3.org/2000/svg">
<path d="M30.8974 17.979L25.5198 12.6014V3.33984C25.5198 1.49825 24.0216 0 22.18 0H7.63312C5.79153 0 4.29327 1.49825 4.29327 3.33984V34.6602C4.29327 36.5017 5.79153 38 7.63312 38H30.3441C30.8744 38 31.3311 37.6259 31.4355 37.106L33.5102 26.7786C34.1582 23.5527 33.1815 20.2631 30.8974 17.979ZM7.63312 2.22656H22.18C22.7939 2.22656 23.2933 2.72598 23.2933 3.33984V17.6996C21.9278 16.3528 19.7341 16.3603 18.3779 17.7164C17.0189 19.0732 17.0124 21.2758 18.3689 22.6415L22.6332 27.0748C21.7087 27.7647 20.5111 28.9689 19.6511 30.9492H6.51984V3.33984C6.51984 2.72598 7.01918 2.22656 7.63312 2.22656ZM6.51984 34.6602V33.1758H18.9314C18.7549 33.9564 18.63 34.8196 18.575 35.7734H7.63312C7.01918 35.7734 6.51984 35.274 6.51984 34.6602ZM31.3272 26.3401L29.4322 35.7734C27.642 35.7734 22.6448 35.7734 20.8068 35.7734C20.9673 33.4088 21.648 31.427 22.7993 29.9966C23.7537 28.8107 24.7256 28.3855 24.803 28.353C25.5314 28.0922 25.7918 27.1467 25.2089 26.5408C19.945 21.0682 19.9612 21.0848 19.9517 21.0755C19.4628 20.5865 19.4551 19.7874 19.9517 19.2915C20.4425 18.8007 21.2403 18.7994 21.7328 19.2878C24.0863 21.6952 22.9419 20.54 27.0605 24.6586C27.4952 25.0934 28.2002 25.0934 28.6349 24.6586C29.0697 24.2238 29.0697 23.519 28.6349 23.0842L25.5198 19.9691V15.7503L29.323 19.5534C31.0789 21.3093 31.8282 23.8464 31.3272 26.3401Z" fill="#1171C2"/>
<path d="M18.1884 11.9021L16.2825 10L11.9235 14.3505L9.90586 12.3369L8 14.2391L11.9235 18.1548L18.1884 11.9021Z" fill="#1171C2"/>
</svg>
