<svg width="38" height="34" viewBox="0 0 38 34" fill="none" xmlns="http://www.w3.org/2000/svg">
<path d="M31 16C31 24.2843 24.2843 31 16 31C7.71573 31 1 24.2843 1 16C1 7.71573 7.71573 1 16 1C24.2843 1 31 7.71573 31 16Z" stroke="#1171C2" stroke-width="2"/>
<path fill-rule="evenodd" clip-rule="evenodd" d="M23.9515 7.34093C24.0404 7.43035 24.1109 7.53651 24.1589 7.65335C24.207 7.77019 24.2318 7.89542 24.2318 8.02189C24.2318 8.14836 24.207 8.27359 24.1589 8.39043C24.1109 8.50727 24.0404 8.61343 23.9515 8.70284L8.64596 24.1091C8.55712 24.1985 8.45166 24.2695 8.33558 24.3179C8.21951 24.3662 8.0951 24.3912 7.96946 24.3912C7.84382 24.3912 7.71941 24.3662 7.60334 24.3179C7.48726 24.2695 7.38179 24.1985 7.29295 24.1091C7.20411 24.0197 7.13364 23.9135 7.08556 23.7967C7.03748 23.6798 7.01274 23.5546 7.01274 23.4281C7.01274 23.3017 7.03748 23.1764 7.08556 23.0596C7.13364 22.9428 7.20411 22.8366 7.29295 22.7472L22.5985 7.34093C22.6873 7.25149 22.7928 7.18054 22.9089 7.13214C23.025 7.08373 23.1494 7.05882 23.275 7.05882C23.4007 7.05882 23.5251 7.08373 23.6411 7.13214C23.7572 7.18054 23.8627 7.25149 23.9515 7.34093ZM10.2653 12.6438C10.8742 12.6438 11.4581 12.4003 11.8887 11.9669C12.3192 11.5335 12.5611 10.9457 12.5611 10.3328C12.5611 9.71993 12.3192 9.13213 11.8887 8.69875C11.4581 8.26536 10.8742 8.02189 10.2653 8.02189C9.6564 8.02189 9.07245 8.26536 8.64189 8.69875C8.21134 9.13213 7.96946 9.71993 7.96946 10.3328C7.96946 10.9457 8.21134 11.5335 8.64189 11.9669C9.07245 12.4003 9.6564 12.6438 10.2653 12.6438ZM10.2653 14.1844C11.2801 14.1844 12.2534 13.7786 12.971 13.0563C13.6885 12.334 14.0917 11.3543 14.0917 10.3328C14.0917 9.31133 13.6885 8.33167 12.971 7.60936C12.2534 6.88705 11.2801 6.48126 10.2653 6.48126C9.25047 6.48126 8.27721 6.88705 7.55963 7.60936C6.84204 8.33167 6.4389 9.31133 6.4389 10.3328C6.4389 11.3543 6.84204 12.334 7.55963 13.0563C8.27721 13.7786 9.25047 14.1844 10.2653 14.1844ZM20.9792 23.4281C21.5881 23.4281 22.172 23.1847 22.6026 22.7513C23.0331 22.3179 23.275 21.7301 23.275 21.1172C23.275 20.5043 23.0331 19.9165 22.6026 19.4831C22.172 19.0497 21.5881 18.8063 20.9792 18.8063C20.3703 18.8063 19.7863 19.0497 19.3558 19.4831C18.9252 19.9165 18.6833 20.5043 18.6833 21.1172C18.6833 21.7301 18.9252 22.3179 19.3558 22.7513C19.7863 23.1847 20.3703 23.4281 20.9792 23.4281ZM20.9792 24.9688C21.994 24.9688 22.9673 24.563 23.6848 23.8407C24.4024 23.1184 24.8056 22.1387 24.8056 21.1172C24.8056 20.0957 24.4024 19.116 23.6848 18.3937C22.9673 17.6714 21.994 17.2656 20.9792 17.2656C19.9644 17.2656 18.9911 17.6714 18.2735 18.3937C17.5559 19.116 17.1528 20.0957 17.1528 21.1172C17.1528 22.1387 17.5559 23.1184 18.2735 23.8407C18.9911 24.563 19.9644 24.9688 20.9792 24.9688Z" fill="#1171C2"/>
<path fill-rule="evenodd" clip-rule="evenodd" d="M33.1451 32.2997C32.9772 32.2997 32.8161 32.2326 32.6973 32.113C32.5785 31.9935 32.5118 31.8313 32.5118 31.6623V20.1875C32.5118 20.0184 32.5785 19.8563 32.6973 19.7367C32.8161 19.6172 32.9772 19.55 33.1451 19.55C33.3131 19.55 33.4742 19.6172 33.5929 19.7367C33.7117 19.8563 33.7784 20.0184 33.7784 20.1875V31.6623C33.7784 31.8313 33.7117 31.9935 33.5929 32.113C33.4742 32.2326 33.3131 32.2997 33.1451 32.2997Z" fill="#1171C2"/>
<path fill-rule="evenodd" clip-rule="evenodd" d="M33.5935 33.3887C33.5347 33.448 33.4648 33.4951 33.3879 33.5273C33.3109 33.5594 33.2284 33.576 33.1451 33.576C33.0618 33.576 32.9793 33.5594 32.9024 33.5273C32.8255 33.4951 32.7556 33.448 32.6967 33.3887L28.8968 29.5638C28.7779 29.4441 28.7111 29.2817 28.7111 29.1124C28.7111 28.9431 28.7779 28.7808 28.8968 28.6611C29.0157 28.5414 29.177 28.4741 29.3452 28.4741C29.5134 28.4741 29.6747 28.5414 29.7936 28.6611L33.1451 32.0359L36.4967 28.6611C36.6156 28.5414 36.7769 28.4741 36.945 28.4741C37.1132 28.4741 37.2745 28.5414 37.3934 28.6611C37.5124 28.7808 37.5792 28.9431 37.5792 29.1124C37.5792 29.2817 37.5124 29.4441 37.3934 29.5638L33.5935 33.3887Z" fill="#1171C2"/>
</svg>
