<svg width="39" height="39" viewBox="0 0 39 39" fill="none" xmlns="http://www.w3.org/2000/svg">
<g clip-path="url(#clip0)">
<path d="M14.3826 8.37653C14.3826 12.9953 18.1477 16.7534 22.7755 16.7534C27.4034 16.7534 31.1685 12.9953 31.1685 8.37653C31.1685 3.75772 27.4034 0 22.7755 0C18.1477 0 14.3826 3.75772 14.3826 8.37653ZM29.6426 8.37653C29.6426 12.1557 26.5621 15.2302 22.7755 15.2302C18.989 15.2302 15.9085 12.1557 15.9085 8.37653C15.9085 4.59769 18.989 1.52314 22.7755 1.52314C26.5621 1.52314 29.6426 4.59769 29.6426 8.37653Z" fill="#1171C2"/>
<path d="M8.82667 38.7747C9.12241 39.0723 9.60389 39.0756 9.90351 38.781L13.6027 35.1438C14.2311 34.5166 14.4222 33.5879 14.1459 32.7807L14.9416 32.0148C15.37 31.6018 15.9341 31.3742 16.5303 31.3742H26.6735C28.473 31.3742 30.1739 30.6844 31.4633 29.4321C31.5163 29.3806 31.0605 29.9165 38.3831 21.1817C39.4692 19.8993 39.3067 17.9736 38.0206 16.8884C36.7425 15.8134 34.828 15.9678 33.7389 17.2282L29.2366 21.8467C28.668 21.1484 27.8011 20.7131 26.8643 20.7131H18.3561C17.1454 20.2075 15.8607 19.9516 14.5352 19.9516C10.8611 19.9516 7.65294 21.6453 5.93124 24.8207C5.2059 24.6835 4.4409 24.9025 3.89055 25.4518L0.260836 29.0851C-0.0355038 29.3818 -0.0361 29.8617 0.259644 30.1593L8.82667 38.7747ZM14.5349 21.4745C15.7036 21.4745 16.8335 21.7093 17.894 22.1722C17.9905 22.2145 18.0946 22.2362 18.1998 22.2362H26.8643C27.6917 22.2362 28.3905 22.9096 28.3905 23.7591C28.3905 24.599 27.706 25.2822 26.8643 25.2822H20.6391C20.2179 25.2822 19.8762 25.6232 19.8762 26.0436C19.8762 26.4643 20.2179 26.805 20.6391 26.805H26.8643C28.5473 26.805 29.9163 25.4387 29.9163 23.7591C29.9163 23.6252 29.9067 23.4925 29.8895 23.3609C34.2448 18.8927 34.859 18.2649 34.8852 18.2336C35.429 17.593 36.3943 17.5118 37.0365 18.0521C37.6793 18.5945 37.7606 19.5574 37.2154 20.2016L30.3718 28.3669C29.3725 29.3244 28.0604 29.8513 26.6735 29.8513H16.5303C15.5364 29.8513 14.5955 30.2307 13.8817 30.9189L13.2333 31.5435L7.25583 25.578C8.65286 22.9622 11.2743 21.4745 14.5349 21.4745ZM4.97037 26.528C5.22199 26.2769 5.60837 26.2317 5.91514 26.4209C6.04721 26.5012 5.66799 26.1567 12.5238 32.9895C12.8287 33.2939 12.8123 33.7789 12.5279 34.0628L9.37433 37.1635L1.87729 29.624L4.97037 26.528Z" fill="#1171C2"/>
<path d="M20.3864 4.43182H25.377V5.21067H20.3864V4.43182ZM23.3203 11.5613H22.443V6.76836H20.3864V5.98952H25.377V6.76836H23.3203V11.5613Z" fill="#1171C2"/>
</g>
<defs>
<clipPath id="clip0">
<rect width="39" height="39" fill="white"/>
</clipPath>
</defs>
</svg>
