<svg width="60" height="60" viewBox="0 0 60 60" fill="none" xmlns="http://www.w3.org/2000/svg">
<g clip-path="url(#clip0)">
<path d="M8.01846 59.9016C8.15252 59.9681 8.29596 60 8.43658 60C8.78065 60 9.11158 59.8106 9.27658 59.4816L14.5331 48.9684L33.4181 55.5366C33.4191 55.5375 33.421 55.5375 33.4228 55.5384L34.3097 55.8469L32.9119 58.6425C32.6803 59.1056 32.8678 59.6691 33.331 59.9006C33.465 59.9681 33.6085 60 33.7491 60C34.0931 60 34.4241 59.8106 34.5891 59.4816L36.4641 55.7316C36.4725 55.7147 36.4706 55.6978 36.4781 55.6819C36.4875 55.6603 36.5025 55.6425 36.511 55.62C36.525 55.5797 36.5194 55.5384 36.5278 55.4972C36.5419 55.4344 36.5541 55.3725 36.5531 55.3097C36.5531 55.2497 36.5419 55.1934 36.5316 55.1344C36.5194 55.0753 36.5091 55.0181 36.4856 54.9619C36.4622 54.9056 36.4313 54.8588 36.3985 54.8081C36.3656 54.7575 36.3347 54.7097 36.2916 54.6656C36.2485 54.6216 36.1978 54.5878 36.1472 54.5522C36.1116 54.5287 36.0863 54.4931 36.046 54.4734C36.0263 54.4641 36.0056 54.465 35.9869 54.4566C35.9672 54.4491 35.955 54.4331 35.9344 54.4266L35.3944 54.2391L45.4163 43.125H45.9375C47.4881 43.125 48.75 41.8631 48.75 40.3125C50.8181 40.3125 52.5 38.6306 52.5 36.5625C52.5 35.4366 51.991 34.4372 51.2035 33.75C51.991 33.0619 52.5 32.0625 52.5 30.9366C52.5 29.8116 51.9919 28.8122 51.2044 28.1241C51.9919 27.4359 52.5 26.4366 52.5 25.3116C52.5 24.1866 51.9919 23.1872 51.2044 22.4991C51.9919 21.8119 52.5 20.8125 52.5 19.6875C52.5 17.6194 50.8181 15.9375 48.75 15.9375V2.8125C48.75 1.26187 47.4881 0 45.9375 0H23.4375C21.8869 0 20.625 1.26187 20.625 2.8125V18.8531C19.4335 17.6344 17.7731 16.875 15.9375 16.875C15.4191 16.875 15 17.295 15 17.8125V47.1459L14.37 46.9275C14.3278 46.9125 14.2856 46.9181 14.2435 46.9097C14.1825 46.8975 14.1235 46.8853 14.0625 46.8853C14.0016 46.8853 13.9435 46.8966 13.8844 46.9078C13.8253 46.92 13.7691 46.9303 13.7128 46.9538C13.6585 46.9753 13.6125 47.0072 13.5628 47.0391C13.5103 47.0719 13.4616 47.1047 13.4156 47.1478C13.3725 47.19 13.3397 47.2397 13.305 47.2903C13.2797 47.3259 13.245 47.3522 13.2244 47.3925L7.5994 58.6425C7.3669 59.1066 7.55533 59.6691 8.01846 59.9016ZM48.75 38.4375H47.8125C46.7785 38.4375 45.9375 37.5966 45.9375 36.5625C45.9375 35.5303 46.7766 34.6903 47.8078 34.6875C47.8097 34.6875 47.8106 34.6884 47.8125 34.6884C47.8144 34.6884 47.8153 34.6875 47.8172 34.6875H48.75C49.7841 34.6875 50.625 35.5284 50.625 36.5625C50.625 37.5966 49.7841 38.4375 48.75 38.4375ZM50.625 30.9366C50.625 31.9706 49.7841 32.8116 48.75 32.8116C48.7481 32.8116 48.7472 32.8125 48.7453 32.8125H47.8125C47.8106 32.8125 47.8097 32.8125 47.8078 32.8125C46.7766 32.8106 45.9375 31.9706 45.9375 30.9384C45.9375 29.9044 46.7785 29.0634 47.8125 29.0634C47.8163 29.0634 47.8181 29.0616 47.8219 29.0616H48.75C49.7841 29.0616 50.625 29.9025 50.625 30.9366ZM47.8125 27.1866C47.8106 27.1866 47.8088 27.1875 47.806 27.1875C46.7756 27.1838 45.9375 26.3447 45.9375 25.3125C45.9375 24.2784 46.7785 23.4375 47.8125 23.4375H48.75C48.7519 23.4375 48.7538 23.4366 48.7566 23.4366C49.7869 23.4403 50.625 24.2794 50.625 25.3116C50.625 26.3456 49.7841 27.1866 48.75 27.1866H47.8125ZM50.625 19.6875C50.625 20.7206 49.786 21.5597 48.7547 21.5625C48.7528 21.5625 48.7519 21.5625 48.75 21.5625C48.7463 21.5625 48.7444 21.5644 48.7406 21.5644H47.8172C47.8153 21.5634 47.8144 21.5625 47.8125 21.5625C46.7785 21.5625 45.9375 20.7216 45.9375 19.6875C45.9375 18.6534 46.7785 17.8125 47.8125 17.8125H48.75C49.7841 17.8125 50.625 18.6534 50.625 19.6875ZM22.5 2.8125C22.5 2.29594 22.92 1.875 23.4375 1.875H45.9375C46.455 1.875 46.875 2.29594 46.875 2.8125V16.0706C45.2616 16.4897 44.0625 17.9456 44.0625 19.6875C44.0625 20.8134 44.5716 21.8128 45.3591 22.5C44.5716 23.1881 44.0625 24.1875 44.0625 25.3125C44.0625 26.4375 44.5706 27.4369 45.3581 28.125C44.5706 28.8131 44.0625 29.8125 44.0625 30.9375C44.0625 32.0625 44.5706 33.0619 45.3581 33.7491C44.5706 34.4381 44.0625 35.4375 44.0625 36.5625C44.0625 38.3044 45.2616 39.7603 46.875 40.1794V40.3125C46.875 40.83 46.455 41.25 45.9375 41.25H23.4375C22.92 41.25 22.5 40.83 22.5 40.3125V2.8125ZM16.875 18.8447C19.0116 19.2806 20.625 21.1734 20.625 23.4375V40.3125C20.625 41.8631 21.8869 43.125 23.4375 43.125H42.8925L33.4706 53.5716L16.875 47.7984V18.8447Z" fill="white"/>
<path d="M15.9563 53.4375C15.4388 53.4375 15.0244 53.8566 15.0244 54.375C15.0244 54.8934 15.4482 55.3125 15.9666 55.3125C16.4841 55.3125 16.9041 54.8934 16.9041 54.375C16.9041 53.8566 16.4841 53.4375 15.9666 53.4375H15.9563Z" fill="white"/>
<path d="M34.6875 34.6875C33.1369 34.6875 31.875 35.9494 31.875 37.5C31.875 39.0506 33.1369 40.3125 34.6875 40.3125C36.2381 40.3125 37.5 39.0506 37.5 37.5C37.5 35.9494 36.2381 34.6875 34.6875 34.6875ZM34.6875 38.4375C34.17 38.4375 33.75 38.0175 33.75 37.5C33.75 36.9825 34.17 36.5625 34.6875 36.5625C35.205 36.5625 35.625 36.9825 35.625 37.5C35.625 38.0175 35.205 38.4375 34.6875 38.4375Z" fill="white"/>
<path d="M32.9375 5.625H35.75C36.2684 5.625 36.6875 5.205 36.6875 4.6875C36.6875 4.17 36.2684 3.75 35.75 3.75H32.9375C32.4191 3.75 32 4.17 32 4.6875C32 5.205 32.4191 5.625 32.9375 5.625Z" fill="white"/>
<path d="M29.1228 13.8486C29.2463 13.8487 29.3675 13.8814 29.4744 13.9434L40.7052 20.4458C40.8116 20.5075 40.8998 20.5961 40.9612 20.7026C41.0226 20.8091 41.0549 20.9299 41.0549 21.0528C41.0549 21.1758 41.0226 21.2966 40.9612 21.4031C40.8998 21.5096 40.8116 21.5982 40.7052 21.6599L29.4744 28.1623C29.3677 28.2241 29.2467 28.2566 29.1235 28.2567C29.0002 28.2569 28.8792 28.2245 28.7724 28.163C28.6656 28.1015 28.5769 28.0129 28.5153 27.9062C28.4536 27.7996 28.4211 27.6785 28.421 27.5553V14.5504C28.421 14.3643 28.495 14.1858 28.6266 14.0542C28.7582 13.9226 28.9367 13.8486 29.1228 13.8486ZM34.9417 22.0451L31.7852 25.2016L35.7845 22.8865L34.9424 22.0444L34.9417 22.0451ZM29.8245 16.9251V25.1778L33.9508 21.0514L29.8245 16.9251ZM37.0414 19.9441L35.934 21.0528L37.0414 22.1595L38.953 21.0528L37.0407 19.9448L37.0414 19.9441ZM31.7852 16.9013L34.9431 20.0592L35.7845 19.2171L31.7852 16.9013Z" fill="#FAFAFA"/>
</g>
<defs>
<clipPath id="clip0">
<rect width="60" height="60" fill="white"/>
</clipPath>
</defs>
</svg>
