<svg width="21" height="20" viewBox="0 0 21 20" fill="none" xmlns="http://www.w3.org/2000/svg">
<path d="M19.4341 9.50003C19.4375 10.8199 19.1292 12.1219 18.5341 13.3C17.8285 14.7118 16.7438 15.8992 15.4015 16.7293C14.0592 17.5594 12.5123 17.9994 10.9341 18C9.61421 18.0035 8.3122 17.6951 7.13408 17.1L1.43408 19L3.33408 13.3C2.73901 12.1219 2.43064 10.8199 2.43408 9.50003C2.43469 7.92179 2.87469 6.37488 3.7048 5.03258C4.53491 3.69028 5.72234 2.6056 7.13408 1.90003C8.3122 1.30496 9.61421 0.996587 10.9341 1.00003H11.4341C13.5184 1.11502 15.4871 1.99479 16.9632 3.47089C18.4393 4.94699 19.3191 6.91568 19.4341 9.00003V9.50003Z" stroke="#FAFAFA" stroke-width="2" stroke-linecap="round" stroke-linejoin="round"/>
</svg>
