<svg width="126" height="38" viewBox="0 0 126 38" fill="none" xmlns="http://www.w3.org/2000/svg">
<path d="M121.333 37.333H4.66667C2.1 37.333 0 35.233 0 32.6663V4.66634C0 2.09967 2.1 -0.000324249 4.66667 -0.000324249H121.333C123.9 -0.000324249 126 2.09967 126 4.66634V32.6663C126 35.233 123.9 37.333 121.333 37.333Z" fill="black"/>
<path d="M121.333 -0.000324249H4.66667C2.1 -0.000324249 0 2.09967 0 4.66634V32.6663C0 35.233 2.1 37.333 4.66667 37.333H121.333C123.9 37.333 126 35.233 126 32.6663V4.66634C126 2.09967 123.9 -0.000324249 121.333 -0.000324249ZM121.333 0.746342C123.495 0.746342 125.253 2.50512 125.253 4.66634V32.6663C125.253 34.8279 123.495 36.5867 121.333 36.5867H4.66667C2.50544 36.5867 0.746667 34.8279 0.746667 32.6663V4.66634C0.746667 2.50512 2.50544 0.746342 4.66667 0.746342H121.333Z" fill="#A6A6A6"/>
<path d="M99.8069 27.9997H101.549V16.332H99.8069V27.9997ZM115.493 20.5349L113.497 25.5935H113.437L111.365 20.5349H109.489L112.596 27.6052L110.825 31.538H112.642L117.43 20.5349H115.493ZM105.617 26.6745C105.046 26.6745 104.251 26.3894 104.251 25.6836C104.251 24.783 105.242 24.4378 106.097 24.4378C106.863 24.4378 107.222 24.6029 107.688 24.8283C107.553 25.9089 106.622 26.6745 105.617 26.6745ZM105.827 20.2797C104.566 20.2797 103.26 20.8353 102.72 22.0662L104.265 22.7115C104.596 22.0662 105.211 21.8558 105.857 21.8558C106.757 21.8558 107.673 22.3965 107.688 23.3572V23.4771C107.373 23.297 106.698 23.0269 105.872 23.0269C104.206 23.0269 102.509 23.9423 102.509 25.6536C102.509 27.2148 103.875 28.2207 105.406 28.2207C106.577 28.2207 107.222 27.6953 107.628 27.0799H107.688V27.9804H109.369V23.507C109.369 21.4358 107.823 20.2797 105.827 20.2797ZM95.0637 21.9553H92.5867V17.9559H95.0637C96.3657 17.9559 97.1049 19.0339 97.1049 19.9555C97.1049 20.8597 96.3657 21.9553 95.0637 21.9553ZM95.0189 16.332H90.846V27.9997H92.5867V23.5792H95.0189C96.9491 23.5792 98.8465 22.1817 98.8465 19.9555C98.8465 17.7294 96.9491 16.332 95.0189 16.332ZM72.2633 26.6767C71.0602 26.6767 70.0528 25.6693 70.0528 24.2857C70.0528 22.8876 71.0602 21.8649 72.2633 21.8649C73.4512 21.8649 74.3834 22.8876 74.3834 24.2857C74.3834 25.6693 73.4512 26.6767 72.2633 26.6767ZM74.2631 21.1883H74.2029C73.8121 20.7223 73.0599 20.3012 72.1128 20.3012C70.1279 20.3012 68.3087 22.0454 68.3087 24.2857C68.3087 26.5112 70.1279 28.2404 72.1128 28.2404C73.0599 28.2404 73.8121 27.8192 74.2029 27.3384H74.2631V27.9097C74.2631 29.4286 73.4512 30.2405 72.143 30.2405C71.0755 30.2405 70.4138 29.4734 70.1429 28.827L68.6244 29.4585C69.0605 30.511 70.2184 31.8042 72.143 31.8042C74.1879 31.8042 75.9171 30.601 75.9171 27.6691V20.5419H74.2631V21.1883ZM77.1199 27.9997H78.8641V16.3316H77.1199V27.9997ZM81.4355 24.1505C81.3903 22.6167 82.6233 21.835 83.5104 21.835C84.2025 21.835 84.7886 22.1806 84.9837 22.6772L81.4355 24.1505ZM86.8485 22.8274C86.5181 21.94 85.5101 20.3012 83.4502 20.3012C81.4052 20.3012 79.7063 21.9101 79.7063 24.2708C79.7063 26.4962 81.3903 28.2404 83.6456 28.2404C85.4653 28.2404 86.5181 27.1276 86.954 26.4812L85.6007 25.5789C85.1498 26.2406 84.5329 26.6767 83.6456 26.6767C82.7586 26.6767 82.1272 26.2706 81.721 25.4739L87.0286 23.2784L86.8485 22.8274ZM44.5609 21.5192V23.2033H48.5905C48.4702 24.1505 48.1545 24.8421 47.6732 25.3233C47.087 25.9099 46.1697 26.5563 44.5609 26.5563C42.0798 26.5563 40.1402 24.5566 40.1402 22.0756C40.1402 19.5946 42.0798 17.5946 44.5609 17.5946C45.8992 17.5946 46.8763 18.121 47.5981 18.7976L48.786 17.6099C47.7786 16.6473 46.4402 15.9106 44.5609 15.9106C41.1625 15.9106 38.3057 18.6773 38.3057 22.0756C38.3057 25.4739 41.1625 28.2404 44.5609 28.2404C46.3954 28.2404 47.7786 27.6392 48.8611 26.5112C49.9738 25.3985 50.3198 23.8347 50.3198 22.5719C50.3198 22.1806 50.2898 21.8201 50.2294 21.5192H44.5609ZM54.9012 26.6767C53.698 26.6767 52.6604 25.6842 52.6604 24.2708C52.6604 22.8423 53.698 21.8649 54.9012 21.8649C56.1039 21.8649 57.1414 22.8423 57.1414 24.2708C57.1414 25.6842 56.1039 26.6767 54.9012 26.6767ZM54.9012 20.3012C52.7056 20.3012 50.9162 21.9702 50.9162 24.2708C50.9162 26.5563 52.7056 28.2404 54.9012 28.2404C57.0963 28.2404 58.8857 26.5563 58.8857 24.2708C58.8857 21.9702 57.0963 20.3012 54.9012 20.3012ZM63.5935 26.6767C62.3908 26.6767 61.3531 25.6842 61.3531 24.2708C61.3531 22.8423 62.3908 21.8649 63.5935 21.8649C64.7963 21.8649 65.8339 22.8423 65.8339 24.2708C65.8339 25.6842 64.7963 26.6767 63.5935 26.6767ZM63.5935 20.3012C61.398 20.3012 59.609 21.9702 59.609 24.2708C59.609 26.5563 61.398 28.2404 63.5935 28.2404C65.7887 28.2404 67.5781 26.5563 67.5781 24.2708C67.5781 21.9702 65.7887 20.3012 63.5935 20.3012Z" fill="white"/>
<path d="M9.80915 30.23L9.73981 30.1636C9.46821 29.8762 9.30786 29.43 9.30786 28.8522V28.9882V8.34658C9.30786 8.34472 9.30786 8.34332 9.30786 8.34182C9.30786 8.3436 9.30786 8.34509 9.30786 8.34695V8.48331C9.30786 7.85761 9.49481 7.38628 9.80803 7.10366L21.3718 18.6672L9.80915 30.23ZM9.30786 8.3407C9.30786 8.28928 9.30926 8.23934 9.31187 8.19016C9.30926 8.23897 9.30786 8.28928 9.30786 8.3407ZM9.31187 8.18792C9.31187 8.18726 9.31187 8.18652 9.31215 8.18577C9.31187 8.18652 9.31187 8.18726 9.31187 8.18792ZM9.31215 8.18138C9.31215 8.18101 9.31215 8.18064 9.31215 8.18026C9.31215 8.18064 9.31215 8.18101 9.31215 8.18138Z" fill="url(#paint0_linear)"/>
<path d="M25.2258 22.6597L25.3138 22.6097L29.8805 20.015C30.3159 19.7675 30.606 19.4674 30.7508 19.1499C30.6064 19.4674 30.3161 19.7678 29.8805 20.0153L25.3138 22.6101L25.2258 22.6597ZM25.227 22.5229L21.3718 18.6671L25.2266 14.812L29.8805 17.456C30.4715 17.7918 30.8033 18.2246 30.8587 18.6668C30.8587 18.6671 30.8587 18.6679 30.8587 18.6685C30.8033 19.1097 30.4715 19.5429 29.8805 19.8786L25.227 22.5229Z" fill="url(#paint1_linear)"/>
<path d="M10.6335 30.6704C10.3105 30.6704 10.0286 30.5654 9.80882 30.3671L9.80919 30.3667C10.029 30.565 10.3112 30.6704 10.6343 30.6704C10.6623 30.6704 10.6907 30.6697 10.7196 30.6683C10.6904 30.6697 10.6615 30.6704 10.6335 30.6704ZM10.6339 30.5337C10.3109 30.534 10.029 30.4287 9.80919 30.2303V30.2301L21.3719 18.6673L25.227 22.5231L11.6795 30.2205C11.3047 30.4331 10.9495 30.5337 10.6339 30.5337ZM9.80593 30.3646C9.78549 30.346 9.76542 30.3263 9.74573 30.3058L9.80593 30.3646Z" fill="url(#paint2_linear)"/>
<path d="M21.3718 18.667L9.80798 7.10346C10.0278 6.9055 10.3093 6.8005 10.6319 6.8005C10.9484 6.8005 11.3038 6.90149 11.6794 7.11438L25.2266 14.8119L21.3718 18.667ZM25.3137 14.7248L11.6794 6.97811C11.3038 6.76513 10.9484 6.66414 10.6319 6.66414C10.6304 6.66414 10.6294 6.66414 10.6279 6.66414C10.6298 6.66414 10.6312 6.66414 10.6334 6.66414C10.9492 6.66414 11.3042 6.76475 11.6794 6.97774L25.3137 14.7248Z" fill="url(#paint3_linear)"/>
<path d="M10.7195 30.668C11.0129 30.6512 11.3378 30.5502 11.6794 30.3566L25.2258 22.6595L11.6794 30.3566C11.3381 30.5506 11.0129 30.6512 10.7195 30.668ZM9.80872 30.3668L9.80583 30.3643C9.80685 30.365 9.80797 30.366 9.80872 30.3668ZM9.74563 30.3056L9.73975 30.2998V30.2994C9.74199 30.3015 9.74376 30.3037 9.74563 30.3056Z" fill="black"/>
<path d="M25.2258 22.6597L25.3137 22.6097L25.2258 22.6597Z" fill="url(#paint4_linear)"/>
<path d="M10.6342 30.6704C10.3111 30.6704 10.0289 30.565 9.80909 30.3667L9.80872 30.3671C9.80797 30.3663 9.80685 30.3653 9.80583 30.3646L9.74563 30.3058C9.74376 30.304 9.74199 30.3018 9.73975 30.2997L9.80909 30.2303C10.0289 30.4287 10.3108 30.534 10.6338 30.5337C10.9494 30.5337 11.3046 30.4331 11.6794 30.2205L25.2269 22.5231L25.3137 22.6099L25.2258 22.6598L11.6794 30.3569C11.3378 30.5505 11.0129 30.6515 10.7195 30.6683C10.6906 30.6697 10.6622 30.6704 10.6342 30.6704Z" fill="url(#paint5_linear)"/>
<path d="M9.73981 30.2998C9.46821 30.0124 9.30786 29.5662 9.30786 28.9884V28.988C9.30786 29.5662 9.46821 30.0121 9.73981 30.2994V30.2998Z" fill="black"/>
<path d="M9.73981 30.2993C9.46821 30.0119 9.30786 29.5661 9.30786 28.9879V28.8519C9.30786 29.4297 9.46821 29.876 9.73981 30.1633L9.80915 30.2297L9.73981 30.2993Z" fill="url(#paint6_linear)"/>
<path d="M9.73975 30.2993L9.80909 30.2297V30.23L9.73975 30.2993Z" fill="url(#paint7_linear)"/>
<path d="M30.7509 19.1499C30.8226 18.9924 30.8587 18.8305 30.8587 18.6686C30.8587 18.6683 30.8587 18.6679 30.8587 18.6679C30.8587 18.8301 30.8226 18.992 30.7509 19.1499Z" fill="black"/>
<path d="M25.3137 22.6099L25.2269 22.5231L29.8804 19.8787C30.4714 19.543 30.8032 19.1099 30.8587 18.6687C30.8587 18.8306 30.8225 18.9924 30.7508 19.15C30.606 19.4675 30.3158 19.7676 29.8804 20.0151L25.3137 22.6099Z" fill="url(#paint8_linear)"/>
<path d="M30.8587 18.667V18.6666C30.8583 18.1784 30.532 17.6903 29.8804 17.3198L25.3137 14.7251H25.3134L25.3137 14.7248L29.8804 17.3194C30.5327 17.6899 30.8594 18.1788 30.8587 18.667Z" fill="#404040"/>
<path d="M30.8587 18.6665C30.8032 18.2243 30.4714 17.7915 29.8804 17.4557L25.2266 14.8117L25.3134 14.7249H25.3137L29.8804 17.3197C30.532 17.6901 30.8583 18.1783 30.8587 18.6665Z" fill="url(#paint9_linear)"/>
<path d="M9.30786 8.3418C9.30786 8.34142 9.30786 8.34105 9.30786 8.34068C9.30786 8.34105 9.30786 8.34142 9.30786 8.3418ZM9.31187 8.19013C9.31187 8.18938 9.31187 8.18864 9.31187 8.18789C9.31187 8.18864 9.31187 8.18938 9.31187 8.19013ZM9.31215 8.18574C9.31215 8.18425 9.31215 8.18285 9.31215 8.18136C9.31215 8.18285 9.31215 8.18425 9.31215 8.18574ZM9.31215 8.18024C9.36619 7.22142 9.88755 6.66758 10.6251 6.66432C10.3053 6.66618 10.0268 6.77118 9.80878 6.96765V6.96728L9.80617 6.96989C9.78321 6.99061 9.76137 7.01254 9.73981 7.03513C9.49481 7.29432 9.34025 7.68258 9.31215 8.18024Z" fill="#404040"/>
<path d="M9.30786 8.48291V8.34655C9.30786 8.34468 9.30786 8.34319 9.30786 8.34142C9.30786 8.34104 9.30786 8.34067 9.30786 8.3403C9.30786 8.28887 9.30926 8.23856 9.31187 8.18975C9.31187 8.189 9.31187 8.18826 9.31187 8.18751C9.31187 8.18686 9.31187 8.18611 9.31215 8.18536C9.31215 8.18387 9.31215 8.18247 9.31215 8.18098C9.31215 8.1806 9.31215 8.18023 9.31215 8.17986C9.34025 7.68221 9.49481 7.29394 9.73981 7.03475L9.80803 7.10326C9.49481 7.38587 9.30786 7.8572 9.30786 8.48291ZM9.80617 6.96951L9.80878 6.9669C9.80803 6.96802 9.80691 6.96876 9.80617 6.96951Z" fill="url(#paint10_linear)"/>
<path d="M25.2265 14.812L11.6794 7.11453C11.3038 6.90164 10.9484 6.80065 10.6319 6.80065C10.3093 6.80065 10.0278 6.90565 9.80797 7.10361L9.73975 7.0351C9.76131 7.01252 9.78315 6.99058 9.80611 6.96986C9.80685 6.96912 9.80797 6.96837 9.80872 6.96762C10.0267 6.77116 10.3053 6.66616 10.625 6.66429C10.6258 6.66429 10.6268 6.66429 10.6279 6.66429C10.6294 6.66429 10.6304 6.66429 10.6319 6.66429C10.9484 6.66429 11.3038 6.76528 11.6794 6.97826L25.3137 14.7249L25.3133 14.7252L25.2265 14.812Z" fill="url(#paint11_linear)"/>
<path d="M40.5967 9.3018C40.6077 10.1877 40.4301 10.9023 40.0655 11.4448H42.8965V7.22074H40.5967V9.3018ZM39.3061 13.3213H38.6182V11.4448H39.1658C39.6506 11.027 39.8876 10.3132 39.8778 9.3018V6.53278H43.6165V11.4448H44.2419V13.3213H43.5535V12.1328H39.3061V13.3213Z" fill="white"/>
<path d="M40.5967 9.30221L40.5034 9.30333L40.5041 9.37875C40.5037 10.217 40.3287 10.8864 39.9878 11.3931L39.8902 11.5386H42.9898V7.12783H40.5034V9.30296V9.30333L40.5967 9.30221H40.69V7.31449H42.8031V11.3519H40.0654V11.4452L40.1428 11.497C40.5099 10.9509 40.6908 10.2421 40.6908 9.37875L40.69 9.30109L40.5967 9.30221H40.69H40.5967ZM39.3061 13.3217V13.2284H38.7114V11.5386H39.1657H39.2003L39.2266 11.516C39.7311 11.0807 39.9714 10.3555 39.9714 9.36344L39.9711 9.30147V9.30221V6.62653H43.5232V11.5386H44.1485V13.2284H43.6468V12.1332V12.0399H39.2127V13.3217H39.3061V13.2284V13.3217H39.3994V12.2265H43.4602V13.3217V13.415H44.2418H44.3352V11.3519H43.7098V6.43987H39.7844V9.30258V9.30296L39.7848 9.36344C39.7844 10.3293 39.5503 10.9917 39.1048 11.3741L39.1657 11.4452V11.3519H38.6181H38.5248V13.415H39.3061H39.3994V13.3217H39.3061Z" fill="white"/>
<path d="M46.2787 10.9407C46.6936 11.3603 47.2004 11.57 47.8001 11.57C48.3998 11.57 48.9074 11.3603 49.3211 10.9407C49.7361 10.5211 49.9438 9.9847 49.9438 9.33323C49.9438 8.68177 49.7361 8.14538 49.3211 7.72576C48.9074 7.30613 48.3998 7.0965 47.8001 7.0965C47.2004 7.0965 46.6936 7.30613 46.2787 7.72576C45.8649 8.14538 45.6571 8.68177 45.6571 9.33323C45.6571 9.9847 45.8649 10.5211 46.2787 10.9407ZM49.8535 11.4095C49.3029 11.9757 48.6186 12.2583 47.8001 12.2583C46.9816 12.2583 46.2969 11.9757 45.7475 11.4095C45.197 10.844 44.9225 10.1518 44.9225 9.33323C44.9225 8.5147 45.197 7.82235 45.7475 7.25694C46.2969 6.69069 46.9816 6.40779 47.8001 6.40779C48.6138 6.40779 49.2967 6.69218 49.8497 7.26058C50.4021 7.82898 50.6784 8.51983 50.6784 9.33323C50.6784 10.1518 50.4032 10.844 49.8535 11.4095Z" fill="white"/>
<path d="M46.2788 10.9406L46.2124 11.0063C46.6422 11.4427 47.1785 11.6643 47.8002 11.6632C48.4214 11.6643 48.9589 11.4427 49.3875 11.0063C49.8203 10.5695 50.038 10.0043 50.0372 9.33316C50.038 8.662 49.8203 8.09687 49.3875 7.66007C48.9589 7.22364 48.4214 7.00197 47.8002 7.00309C47.1785 7.00197 46.6422 7.22364 46.2124 7.66007C45.7808 8.09687 45.5631 8.662 45.5639 9.33316C45.5631 10.0043 45.7808 10.5695 46.2124 11.0063L46.2788 10.9406L46.3455 10.875C45.9495 10.4721 45.7515 9.96531 45.7505 9.33316C45.7515 8.70101 45.9495 8.19422 46.3455 7.7913H46.3451C46.7447 7.38847 47.2219 7.19088 47.8002 7.18976C48.378 7.19088 48.8564 7.38847 49.2548 7.7913L49.2563 7.79279L49.2548 7.7913C49.6519 8.19422 49.8495 8.70101 49.8506 9.33316C49.8495 9.96531 49.6519 10.4721 49.2548 10.875C48.8564 11.2779 48.378 11.4754 47.8002 11.4766C47.2219 11.4754 46.7447 11.2779 46.3451 10.875L46.2788 10.9406ZM49.8535 11.4095L49.7868 11.3446C49.2519 11.8929 48.5972 12.1638 47.8002 12.1649C47.0029 12.1638 46.3484 11.8929 45.8143 11.3446C45.2805 10.7944 45.0169 10.1309 45.0159 9.33316C45.0169 8.53544 45.2805 7.87193 45.8143 7.32173C46.3484 6.7734 47.0029 6.50217 47.8002 6.50105C48.5924 6.50217 49.2454 6.77452 49.7832 7.32575C50.3191 7.87847 50.5842 8.54095 50.5852 9.33316C50.5842 10.1309 50.3198 10.7944 49.7868 11.3446L49.8535 11.4095L49.9206 11.4743C50.4864 10.8932 50.7726 10.1724 50.7719 9.33316C50.7726 8.49867 50.4857 7.77935 49.9169 7.19564C49.3481 6.60969 48.6358 6.31336 47.8002 6.31439C46.9602 6.31336 46.2456 6.60829 45.6805 7.192V7.19163C45.1135 7.77309 44.8285 8.49391 44.8292 9.33316C44.8285 10.1724 45.1135 10.8932 45.6805 11.4747V11.4743C46.2456 12.058 46.9602 12.3523 47.8002 12.3516C48.6398 12.3523 49.3544 12.058 49.9206 11.4743L49.8535 11.4095Z" fill="white"/>
<path d="M54.3006 12.2583C53.4767 12.2583 52.7858 11.9794 52.228 11.4212C51.6691 10.8634 51.3912 10.1674 51.3912 9.33323C51.3912 8.49902 51.6691 7.80303 52.228 7.24527C52.7858 6.68705 53.4767 6.40779 54.3006 6.40779C55.1446 6.40779 55.8308 6.71299 56.3576 7.32293L55.8563 7.80817C55.4764 7.33347 54.9569 7.0965 54.3006 7.0965C53.6899 7.0965 53.1747 7.30249 52.7555 7.71446C52.3355 8.12643 52.1259 8.66609 52.1259 9.33323C52.1259 10.0004 52.3355 10.5404 52.7555 10.952C53.1747 11.364 53.6899 11.57 54.3006 11.57C54.9733 11.57 55.5464 11.299 56.0214 10.7569L56.5217 11.2571C56.2658 11.5648 55.9456 11.8087 55.5591 11.9881C55.1738 12.1682 54.7535 12.2583 54.3006 12.2583Z" fill="white"/>
<path d="M54.3007 12.2582V12.1649C53.4976 12.1638 52.8358 11.8958 52.294 11.3551C51.7526 10.8137 51.4854 10.1466 51.4846 9.33316C51.4854 8.51976 51.7526 7.85261 52.294 7.31119C52.8358 6.77013 53.4976 6.50218 54.3007 6.50106C55.1225 6.50255 55.7758 6.79347 56.2869 7.38371L56.3577 7.32285L56.2928 7.25575L55.7915 7.74136L55.8564 7.8081L55.9293 7.74976C55.5334 7.25323 54.9789 7.0017 54.3007 7.0031C53.6688 7.00235 53.1253 7.21935 52.6903 7.64766C52.251 8.07755 52.0315 8.64698 52.0326 9.33316C52.0315 10.0193 52.251 10.5895 52.6903 11.0187C53.1253 11.447 53.6688 11.664 54.3007 11.6632C54.9988 11.6643 55.6037 11.3777 56.0915 10.8185L56.0215 10.7569L55.9555 10.8229L56.4558 11.323L56.5218 11.257L56.4499 11.1977C56.2027 11.4944 55.895 11.7292 55.5198 11.9035C55.1469 12.0777 54.7415 12.1645 54.3007 12.1649V12.2582V12.3516C54.7659 12.3516 55.2005 12.259 55.5986 12.0727C55.9968 11.8882 56.3286 11.6355 56.5935 11.3169L56.6478 11.2516L56.0876 10.6909L56.0168 10.6201L55.9512 10.6953C55.4896 11.2206 54.9479 11.4754 54.3007 11.4766C53.7108 11.4754 53.2248 11.2807 52.8212 10.8852H52.8209C52.4198 10.4914 52.22 9.98136 52.2193 9.33316C52.22 8.68496 52.4198 8.17564 52.8209 7.78112H52.8212C53.2248 7.38558 53.7108 7.19088 54.3007 7.18976C54.9347 7.19126 55.4192 7.41367 55.7835 7.86643L55.8476 7.94669L56.4225 7.38996L56.486 7.32864L56.4284 7.262C55.8862 6.632 55.1669 6.31336 54.3007 6.31439C53.4556 6.31364 52.7355 6.60428 52.1621 7.17921C51.5856 7.75303 51.2969 8.4786 51.298 9.33316C51.2969 10.1877 51.5856 10.9133 52.1621 11.4875C52.7355 12.062 53.4556 12.3523 54.3007 12.3516V12.2582Z" fill="white"/>
<path d="M59.4321 12.1328H58.7122V7.22077H57.1481V6.53281H60.9962V7.22077H59.4321V12.1328Z" fill="white"/>
<path d="M59.4322 12.1332V12.0399H58.8056V7.12786H57.2415V6.62656H60.9029V7.12786H59.3389V12.1332H59.4322V12.0399V12.1332H59.5255V7.31452H61.0896V6.53323V6.4399H57.0548V7.22119V7.31452H58.6189V12.2266H59.4322H59.5255V12.1332H59.4322Z" fill="white"/>
<path d="M65.9367 6.53323L63.8177 11.2571C63.5249 11.9247 63.0907 12.2583 62.5118 12.2583C62.3397 12.2583 62.1544 12.2168 61.9558 12.1332L62.1435 11.4682C62.2638 11.5364 62.3889 11.57 62.5191 11.57C62.6861 11.57 62.8154 11.5375 62.9066 11.4726C62.9978 11.4074 63.0823 11.2881 63.1607 11.1164L63.3641 10.6701L61.4792 6.53323H62.324L63.7083 9.74773H63.7393L65.0915 6.53323H65.9367Z" fill="white"/>
<path d="M65.9368 6.53315L65.8515 6.49488L63.7325 11.2191L63.7322 11.2199C63.4441 11.867 63.0507 12.1616 62.5119 12.1649C62.3547 12.1649 62.1819 12.127 61.9919 12.0471L61.9559 12.1331L62.0459 12.1586L62.2333 11.4936L62.1436 11.4681L62.0981 11.5494C62.2308 11.6246 62.3726 11.6636 62.5192 11.6632C62.6975 11.6632 62.8469 11.6293 62.961 11.5483C63.0733 11.467 63.1634 11.3347 63.2458 11.1553L63.4493 10.7091L63.4667 10.6701L61.6245 6.62648H62.2629L63.6468 9.84097H63.7394H63.8014L65.1536 6.62648H65.9368V6.53315L65.8515 6.49488L65.9368 6.53315V6.43981H65.0916H65.0297L63.653 9.71161L63.7394 9.74764V9.65431H63.7084V9.74764L63.7941 9.71087L62.3857 6.43981H61.4794H61.3342L63.2615 10.6701L63.0759 11.0776C63.0019 11.2413 62.9224 11.3471 62.8524 11.3963C62.7843 11.4456 62.6745 11.4769 62.5192 11.4765C62.405 11.4765 62.2975 11.4477 62.1895 11.3869L62.086 11.3285L61.8662 12.1077L61.8436 12.1871L61.9198 12.2192C62.1272 12.3063 62.3245 12.3515 62.5119 12.3515C63.1305 12.3544 63.606 11.9819 63.9031 11.2946L63.9028 11.2953L66.0808 6.43981H65.9368V6.53315Z" fill="white"/>
<path d="M66.7515 12.1328V6.53281H70.8031V12.1328H70.0831V7.22077H67.4704V12.1328H66.7515Z" fill="white"/>
<path d="M66.7515 12.1332H66.8449V6.62656H70.7095V12.0399H70.1765V7.12786H67.3772V12.0399H66.7515V12.1332H66.8449H66.7515V12.2266H67.4705H67.5638V7.31452H69.9898V12.2266H70.8031H70.8965V6.4399H66.6582V12.2266H66.7515V12.1332Z" fill="white"/>
<path d="M72.0854 12.1328V6.53281H72.8048V8.93362H75.6048V6.53281H76.3248V12.1328H75.6048V9.60628H72.8048V12.1328H72.0854Z" fill="white"/>
<path d="M72.0854 12.1332H72.1787V6.62656H72.7114V9.02738H75.6981V6.62656H76.2315V12.0399H75.6981V9.51336H72.7114V12.0399H72.0854V12.1332H72.1787H72.0854V12.2266H72.8047H72.8981V9.70003H75.5114V12.2266H76.3248H76.4181V6.4399H75.6047H75.5114V8.84071H72.8981V6.4399H72.0854H71.9921V12.2266H72.0854V12.1332Z" fill="white"/>
<path d="M78.6121 10.9407C79.027 11.3603 79.5337 11.57 80.1335 11.57C80.7333 11.57 81.2408 11.3603 81.6546 10.9407C82.0694 10.5211 82.2773 9.9847 82.2773 9.33323C82.2773 8.68177 82.0694 8.14538 81.6546 7.72576C81.2408 7.30613 80.7333 7.0965 80.1335 7.0965C79.5337 7.0965 79.027 7.30613 78.6121 7.72576C78.1987 8.14538 77.9905 8.68177 77.9905 9.33323C77.9905 9.9847 78.1987 10.5211 78.6121 10.9407ZM82.1868 11.4095C81.6367 11.9757 80.952 12.2583 80.1335 12.2583C79.3151 12.2583 78.6307 11.9757 78.0809 11.4095C77.5304 10.844 77.2559 10.1518 77.2559 9.33323C77.2559 8.5147 77.5304 7.82235 78.0809 7.25694C78.6307 6.69069 79.3151 6.40779 80.1335 6.40779C80.9477 6.40779 81.6301 6.69218 82.1832 7.26058C82.7355 7.82898 83.0119 8.51983 83.0119 9.33323C83.0119 10.1518 82.7367 10.844 82.1868 11.4095Z" fill="white"/>
<path d="M78.6122 10.9406L78.5459 11.0063C78.9761 11.4427 79.512 11.6643 80.1336 11.6632C80.7552 11.6643 81.2922 11.4427 81.7214 11.0063C82.1538 10.5695 82.3714 10.0043 82.3707 9.33316C82.3714 8.662 82.1538 8.09687 81.7214 7.66007C81.2922 7.22364 80.7552 7.00197 80.1336 7.00309C79.512 7.00197 78.9761 7.22364 78.5459 7.66007C78.1142 8.09687 77.8965 8.662 77.8972 9.33316C77.8965 10.0043 78.1142 10.5695 78.5459 11.0063L78.6122 10.9406L78.6789 10.875C78.283 10.4721 78.085 9.96531 78.0839 9.33316C78.085 8.70101 78.283 8.19422 78.6789 7.7913C79.0782 7.38847 79.5558 7.19088 80.1336 7.18976C80.7115 7.19088 81.1898 7.38847 81.5883 7.7913L81.5912 7.79428L81.5883 7.7913C81.9853 8.19422 82.1833 8.70101 82.184 9.33316C82.1833 9.96531 81.9853 10.4721 81.5883 10.875C81.1898 11.2779 80.7115 11.4754 80.1336 11.4766C79.5558 11.4754 79.0782 11.2779 78.6789 10.875L78.6122 10.9406ZM82.1869 11.4095L82.1202 11.3446C81.5854 11.8929 80.9306 12.1638 80.1336 12.1649C79.3366 12.1638 78.6819 11.8929 78.1481 11.3446L78.1452 11.3417L78.1481 11.3446C77.614 10.7944 77.3504 10.1309 77.3493 9.33316C77.3504 8.53544 77.614 7.87193 78.1481 7.32173C78.6819 6.7734 79.3366 6.50217 80.1336 6.50105C80.9259 6.50217 81.5789 6.77452 82.1165 7.32575C82.6526 7.87847 82.9179 8.54095 82.9187 9.33316C82.9179 10.1309 82.6532 10.7944 82.1202 11.3446L82.1869 11.4095L82.254 11.4743C82.8202 10.8932 83.1061 10.1724 83.1053 9.33316C83.1061 8.49867 82.8192 7.77935 82.2504 7.19564C81.6816 6.60969 80.9692 6.31336 80.1336 6.31439C79.2936 6.31336 78.5794 6.60829 78.0139 7.192V7.19163C77.447 7.77309 77.1619 8.49391 77.1626 9.33316C77.1619 10.1724 77.447 10.8932 78.0139 11.4747V11.4743C78.5794 12.058 79.2936 12.3523 80.1336 12.3516C80.9736 12.3523 81.6879 12.058 82.254 11.4743L82.1869 11.4095Z" fill="white"/>
<path d="M86.673 11.4449H88.1206C88.3969 11.4449 88.6209 11.3483 88.7935 11.1547C88.9653 10.9625 89.0511 10.751 89.0511 10.5213C89.0511 10.292 88.9625 10.0824 88.7851 9.89207C88.6087 9.70176 88.3754 9.60628 88.0889 9.60628H86.673V11.4449ZM86.673 8.93362H87.9797C88.2513 8.93362 88.4687 8.84431 88.633 8.6638C88.7973 8.48404 88.8794 8.28757 88.8794 8.07356C88.8794 7.85992 88.8001 7.66373 88.6405 7.48733C88.4818 7.30972 88.2718 7.22077 88.0114 7.22077H86.673V8.93362ZM85.9543 12.1328V6.53281H87.9797C88.4174 6.53281 88.7973 6.67795 89.1174 6.96663C89.4385 7.25652 89.599 7.61996 89.599 8.05788C89.599 8.3236 89.5299 8.55843 89.3909 8.76189C89.2537 8.96527 89.0698 9.11917 88.8402 9.22343V9.25441C89.1155 9.34812 89.3433 9.50996 89.5206 9.73928C89.697 9.96897 89.7866 10.2352 89.7866 10.5374C89.7866 10.996 89.6186 11.3766 89.2817 11.6789C88.9457 11.9815 88.5481 12.1328 88.0889 12.1328H85.9543Z" fill="white"/>
<path d="M86.6731 11.4453V11.5386H88.1207C88.4184 11.5397 88.6751 11.4303 88.8627 11.2173C89.0475 11.0121 89.1455 10.7751 89.1446 10.5217C89.1455 10.2681 89.0438 10.0321 88.8534 9.82873C88.6602 9.61901 88.396 9.51224 88.089 9.51336H86.5798V11.5386H86.6731V11.4453H86.7664V9.70003H88.089C88.3559 9.70105 88.5566 9.78571 88.7171 9.95595C88.8814 10.1338 88.9569 10.3172 88.9579 10.5217C88.9569 10.7277 88.8832 10.9137 88.7236 11.093C88.5677 11.2666 88.3755 11.3504 88.1207 11.3519H86.6731V11.4453H86.7664H86.6731ZM86.6731 8.93404V9.02737H87.9798C88.271 9.0284 88.5211 8.92779 88.7022 8.72693V8.72731C88.8786 8.53476 88.9728 8.31235 88.9728 8.07397C88.9728 7.837 88.8823 7.61533 88.7096 7.42503V7.4254C88.5351 7.22772 88.2924 7.12673 88.0115 7.12785H86.5798V9.02737H86.6731V8.93404H86.7664V7.31452H88.0115C88.2513 7.31601 88.4287 7.39255 88.5705 7.54972L88.5715 7.55037L88.5705 7.55009C88.7171 7.71343 88.7852 7.88404 88.7862 8.07397C88.7852 8.26316 88.7152 8.43452 88.564 8.60112V8.60149C88.4166 8.76156 88.2308 8.83959 87.9798 8.84071H86.6731V8.93404H86.7664H86.6731ZM85.9544 12.1332H86.0478V6.62656H87.9798C88.397 6.62731 88.7498 6.76217 89.055 7.03639C89.3583 7.31125 89.5048 7.64343 89.5057 8.05829C89.5057 8.30805 89.4413 8.52207 89.3144 8.70976C89.1856 8.89941 89.0167 9.04081 88.8011 9.13891L88.7469 9.16373V9.25483V9.32156L88.8095 9.34303C89.0699 9.43207 89.2799 9.58149 89.4469 9.797L89.4479 9.79803L89.4469 9.79663C89.6112 10.011 89.6934 10.2538 89.6934 10.5378C89.6924 10.9738 89.5375 11.3227 89.2192 11.6101C88.8982 11.8977 88.5276 12.0391 88.089 12.0399H85.9544V12.1332H86.0478H85.9544V12.2266H88.089C88.5687 12.2273 88.9924 12.0661 89.3443 11.7486C89.699 11.4317 89.881 11.0194 89.88 10.5378C89.881 10.2174 89.7839 9.92785 89.5944 9.68285L89.5935 9.68173L89.5944 9.68248C89.4068 9.43972 89.1623 9.26537 88.8702 9.16663L88.8403 9.25483H88.9336V9.22384H88.8403L88.8786 9.30877C89.1222 9.19836 89.3219 9.03241 89.4684 8.81439V8.81476C89.6177 8.59571 89.6924 8.34007 89.6924 8.05829C89.6933 7.59779 89.5198 7.20261 89.18 6.89779L89.1781 6.89601L89.18 6.89779C88.844 6.59408 88.438 6.43915 87.9798 6.43989H85.8611V12.2266H85.9544V12.1332Z" fill="white"/>
<defs>
<linearGradient id="paint0_linear" x1="20.3465" y1="8.12884" x2="4.68282" y2="23.7925" gradientUnits="userSpaceOnUse">
<stop stop-color="#00A0FF"/>
<stop offset="0.00657445" stop-color="#00A1FF"/>
<stop offset="0.2601" stop-color="#00BEFF"/>
<stop offset="0.5122" stop-color="#00D2FF"/>
<stop offset="0.7604" stop-color="#00DFFF"/>
<stop offset="1" stop-color="#00E3FF"/>
</linearGradient>
<linearGradient id="paint1_linear" x1="31.5788" y1="18.6677" x2="8.99489" y2="18.6677" gradientUnits="userSpaceOnUse">
<stop stop-color="#FFE000"/>
<stop offset="0.4087" stop-color="#FFBD00"/>
<stop offset="0.7754" stop-color="#FFA500"/>
<stop offset="1" stop-color="#FF9C00"/>
</linearGradient>
<linearGradient id="paint2_linear" x1="23.1719" y1="20.8096" x2="1.93083" y2="42.0506" gradientUnits="userSpaceOnUse">
<stop stop-color="#FF3A44"/>
<stop offset="1" stop-color="#C31162"/>
</linearGradient>
<linearGradient id="paint3_linear" x1="6.81077" y1="0.164034" x2="16.2958" y2="9.64903" gradientUnits="userSpaceOnUse">
<stop stop-color="#32A071"/>
<stop offset="0.0685" stop-color="#2DA771"/>
<stop offset="0.4762" stop-color="#15CF74"/>
<stop offset="0.8009" stop-color="#06E775"/>
<stop offset="1" stop-color="#00F076"/>
</linearGradient>
<linearGradient id="paint4_linear" x1="31.5787" y1="18.6677" x2="8.99512" y2="18.6677" gradientUnits="userSpaceOnUse">
<stop stop-color="#CCB300"/>
<stop offset="0.4087" stop-color="#CC9700"/>
<stop offset="0.7754" stop-color="#CC8400"/>
<stop offset="1" stop-color="#CC7D00"/>
</linearGradient>
<linearGradient id="paint5_linear" x1="23.1718" y1="20.8096" x2="1.93073" y2="42.0506" gradientUnits="userSpaceOnUse">
<stop stop-color="#CC2E36"/>
<stop offset="1" stop-color="#9C0E4E"/>
</linearGradient>
<linearGradient id="paint6_linear" x1="20.3465" y1="8.12853" x2="4.68282" y2="23.7922" gradientUnits="userSpaceOnUse">
<stop stop-color="#008DE0"/>
<stop offset="0.00657445" stop-color="#008DE0"/>
<stop offset="0.2601" stop-color="#00A7E0"/>
<stop offset="0.5122" stop-color="#00B8E0"/>
<stop offset="0.7604" stop-color="#00C4E0"/>
<stop offset="1" stop-color="#00C7E0"/>
</linearGradient>
<linearGradient id="paint7_linear" x1="23.172" y1="20.8092" x2="1.93088" y2="42.0506" gradientUnits="userSpaceOnUse">
<stop stop-color="#E0333C"/>
<stop offset="1" stop-color="#AB0F56"/>
</linearGradient>
<linearGradient id="paint8_linear" x1="31.5787" y1="18.6678" x2="8.99486" y2="18.6678" gradientUnits="userSpaceOnUse">
<stop stop-color="#E0C500"/>
<stop offset="0.4087" stop-color="#E0A600"/>
<stop offset="0.7754" stop-color="#E09100"/>
<stop offset="1" stop-color="#E08900"/>
</linearGradient>
<linearGradient id="paint9_linear" x1="31.5787" y1="18.6674" x2="8.99487" y2="18.6674" gradientUnits="userSpaceOnUse">
<stop stop-color="#FFE840"/>
<stop offset="0.4087" stop-color="#FFCE40"/>
<stop offset="0.7754" stop-color="#FFBC40"/>
<stop offset="1" stop-color="#FFB540"/>
</linearGradient>
<linearGradient id="paint10_linear" x1="20.3465" y1="8.12843" x2="4.68282" y2="23.7921" gradientUnits="userSpaceOnUse">
<stop stop-color="#40B8FF"/>
<stop offset="0.00657445" stop-color="#40B9FF"/>
<stop offset="0.2601" stop-color="#40CEFF"/>
<stop offset="0.5122" stop-color="#40DDFF"/>
<stop offset="0.7604" stop-color="#40E7FF"/>
<stop offset="1" stop-color="#40EAFF"/>
</linearGradient>
<linearGradient id="paint11_linear" x1="6.81076" y1="0.164184" x2="16.2958" y2="9.64918" gradientUnits="userSpaceOnUse">
<stop stop-color="#65B895"/>
<stop offset="0.0685" stop-color="#62BD95"/>
<stop offset="0.4762" stop-color="#50DB97"/>
<stop offset="0.8009" stop-color="#44ED98"/>
<stop offset="1" stop-color="#40F498"/>
</linearGradient>
</defs>
</svg>
