<svg width="20" height="21" viewBox="0 0 20 21" fill="none" xmlns="http://www.w3.org/2000/svg">
<g opacity="0.3">
<path d="M6 18C6 18 4 16.6875 4 13.625C4 10.5625 5.5 9.6875 5.5 7.5C5.5 5.3125 4 4 4 4" stroke="black" stroke-width="1.5" stroke-linecap="round" stroke-linejoin="round"/>
<path d="M11 18C11 18 9 16.6875 9 13.625C9 10.5625 10.5 9.6875 10.5 7.5C10.5 5.3125 9 4 9 4" stroke="black" stroke-width="1.5" stroke-linecap="round" stroke-linejoin="round"/>
<path d="M16 18C16 18 14 16.6875 14 13.625C14 10.5625 15.5 9.6875 15.5 7.5C15.5 5.3125 14 4 14 4" stroke="black" stroke-width="1.5" stroke-linecap="round" stroke-linejoin="round"/>
</g>
</svg>
