<svg width="30" height="30" viewBox="0 0 30 30" fill="none" xmlns="http://www.w3.org/2000/svg">
<path d="M14.9976 10.3821C12.4422 10.3821 10.3798 12.4445 10.3798 15C10.3798 17.5555 12.4422 19.6179 14.9976 19.6179C17.553 19.6179 19.6154 17.5555 19.6154 15C19.6154 12.4445 17.553 10.3821 14.9976 10.3821ZM14.9976 18.0013C13.345 18.0013 11.9964 16.6526 11.9964 15C11.9964 13.3474 13.345 11.9987 14.9976 11.9987C16.6502 11.9987 17.9988 13.3474 17.9988 15C17.9988 16.6526 16.6502 18.0013 14.9976 18.0013ZM19.8045 9.11678C19.2078 9.11678 18.726 9.5986 18.726 10.1953C18.726 10.7919 19.2078 11.2737 19.8045 11.2737C20.4011 11.2737 20.8829 10.7942 20.8829 10.1953C20.8831 10.0536 20.8554 9.91325 20.8012 9.78233C20.7471 9.6514 20.6677 9.53244 20.5675 9.43226C20.4673 9.33208 20.3483 9.25264 20.2174 9.19851C20.0865 9.14437 19.9462 9.1166 19.8045 9.11678ZM23.999 15C23.999 13.7572 24.0103 12.5256 23.9405 11.285C23.8707 9.84402 23.5419 8.56515 22.4883 7.51144C21.4323 6.45548 20.1557 6.12901 18.7148 6.05921C17.472 5.98941 16.2404 6.00067 14.9998 6.00067C13.757 6.00067 12.5255 5.98941 11.2849 6.05921C9.84395 6.12901 8.5651 6.45773 7.51141 7.51144C6.45547 8.5674 6.129 9.84402 6.05921 11.285C5.98941 12.5278 6.00067 13.7594 6.00067 15C6.00067 16.2406 5.98941 17.4744 6.05921 18.715C6.129 20.156 6.45772 21.4348 7.51141 22.4886C8.56736 23.5445 9.84395 23.871 11.2849 23.9408C12.5277 24.0106 13.7593 23.9993 14.9998 23.9993C16.2426 23.9993 17.4742 24.0106 18.7148 23.9408C20.1557 23.871 21.4346 23.5423 22.4883 22.4886C23.5442 21.4326 23.8707 20.156 23.9405 18.715C24.0125 17.4744 23.999 16.2428 23.999 15ZM22.0177 20.3091C21.8533 20.7189 21.6552 21.0251 21.3377 21.3403C21.0203 21.6577 20.7163 21.8559 20.3066 22.0202C19.1223 22.4908 16.3102 22.385 14.9976 22.385C13.685 22.385 10.8706 22.4908 9.68634 22.0225C9.27657 21.8581 8.97037 21.66 8.65516 21.3425C8.33771 21.0251 8.13958 20.7211 7.97522 20.3113C7.50691 19.1248 7.61273 16.3126 7.61273 15C7.61273 13.6874 7.50691 10.873 7.97522 9.68866C8.13958 9.27888 8.33771 8.97268 8.65516 8.65746C8.97262 8.34225 9.27657 8.14187 9.68634 7.97751C10.8706 7.50919 13.685 7.61501 14.9976 7.61501C16.3102 7.61501 19.1245 7.50919 20.3088 7.97751C20.7186 8.14187 21.0248 8.34 21.34 8.65746C21.6575 8.97493 21.8556 9.27888 22.0199 9.68866C22.4883 10.873 22.3824 13.6874 22.3824 15C22.3824 16.3126 22.4883 19.1248 22.0177 20.3091Z" fill="#1171C2"/>
</svg>
