<svg width="30" height="30" viewBox="0 0 30 30" fill="none" xmlns="http://www.w3.org/2000/svg">
<path d="M14.9978 10.8952C12.7264 10.8952 10.8932 12.7285 10.8932 15C10.8932 17.2715 12.7264 19.1048 14.9978 19.1048C17.2693 19.1048 19.1025 17.2715 19.1025 15C19.1025 12.7285 17.2693 10.8952 14.9978 10.8952ZM14.9978 17.6678C13.5289 17.6678 12.3301 16.469 12.3301 15C12.3301 13.531 13.5289 12.3322 14.9978 12.3322C16.4668 12.3322 17.6656 13.531 17.6656 15C17.6656 16.469 16.4668 17.6678 14.9978 17.6678ZM19.2707 9.77047C18.7403 9.77047 18.312 10.1988 18.312 10.7291C18.312 11.2595 18.7403 11.6878 19.2707 11.6878C19.801 11.6878 20.2293 11.2615 20.2293 10.7291C20.2294 10.6032 20.2048 10.4784 20.1566 10.3621C20.1085 10.2457 20.0379 10.1399 19.9489 10.0509C19.8598 9.96185 19.7541 9.89124 19.6377 9.84312C19.5213 9.795 19.3966 9.77031 19.2707 9.77047ZM22.9991 15C22.9991 13.8953 23.0091 12.8005 22.9471 11.6978C22.885 10.4169 22.5928 9.28014 21.6562 8.3435C20.7176 7.40487 19.5829 7.11467 18.302 7.05263C17.1973 6.99059 16.1026 7.0006 14.9999 7.0006C13.8951 7.0006 12.8004 6.99059 11.6977 7.05263C10.4168 7.11467 9.28009 7.40687 8.34348 8.3435C7.40486 9.28214 7.11467 10.4169 7.05263 11.6978C6.99059 12.8025 7.0006 13.8973 7.0006 15C7.0006 16.1027 6.99059 17.1995 7.05263 18.3022C7.11467 19.5831 7.40686 20.7199 8.34348 21.6565C9.28209 22.5951 10.4168 22.8853 11.6977 22.9474C12.8024 23.0094 13.8971 22.9994 14.9999 22.9994C16.1046 22.9994 17.1993 23.0094 18.302 22.9474C19.5829 22.8853 20.7196 22.5931 21.6562 21.6565C22.5948 20.7179 22.885 19.5831 22.9471 18.3022C23.0111 17.1995 22.9991 16.1047 22.9991 15ZM21.238 19.7192C21.0919 20.0834 20.9157 20.3556 20.6336 20.6358C20.3514 20.918 20.0812 21.0941 19.717 21.2402C18.6643 21.6585 16.1646 21.5644 14.9978 21.5644C13.8311 21.5644 11.3294 21.6585 10.2767 21.2422C9.91251 21.0961 9.64033 20.92 9.36015 20.6378C9.07796 20.3556 8.90184 20.0854 8.75575 19.7212C8.33948 18.6665 8.43354 16.1668 8.43354 15C8.43354 13.8332 8.33948 11.3315 8.75575 10.2788C8.90184 9.91456 9.07796 9.64238 9.36015 9.36219C9.64233 9.082 9.91251 8.90388 10.2767 8.75778C11.3294 8.3415 13.8311 8.43556 14.9978 8.43556C16.1646 8.43556 18.6663 8.3415 19.719 8.75778C20.0832 8.90388 20.3554 9.08 20.6356 9.36219C20.9177 9.64438 21.0939 9.91456 21.24 10.2788C21.6562 11.3315 21.5622 13.8332 21.5622 15C21.5622 16.1668 21.6562 18.6665 21.238 19.7192Z" fill="#FAFAFA"/>
</svg>
