<svg width="30" height="30" viewBox="0 0 30 30" fill="none" xmlns="http://www.w3.org/2000/svg">
<path d="M14.9095 15.2442C17.4508 15.2442 19.4056 13.1916 19.4056 10.7481C19.4056 8.2068 17.353 6.25195 14.9095 6.25195C12.4659 6.25195 10.4133 8.30454 10.4133 10.7481C10.4133 13.1916 12.3682 15.2442 14.9095 15.2442ZM14.9095 8.89099C15.9846 8.89099 16.7666 9.77067 16.7666 10.7481C16.7666 11.8233 15.8869 12.6052 14.9095 12.6052C13.8343 12.6052 13.0524 11.7255 13.0524 10.7481C13.0524 9.67293 13.8343 8.89099 14.9095 8.89099Z" fill="#1171C2"/>
<path d="M16.7665 18.9583C17.6462 18.7628 18.6236 18.3718 19.4056 17.8831C19.992 17.4921 20.1875 16.7102 19.7965 16.026C19.4056 15.4396 18.6236 15.2441 17.9394 15.635C16.0823 16.808 13.6388 16.808 11.7817 15.635C11.1952 15.2441 10.3156 15.4396 9.9246 16.026C9.53363 16.6125 9.72911 17.4921 10.3156 17.8831C11.0975 18.3718 12.0749 18.7628 12.9546 18.9583L10.4133 21.4996C9.9246 21.9883 9.9246 22.868 10.4133 23.3567C10.7065 23.6499 10.9998 23.7476 11.3907 23.7476C11.684 23.7476 12.0749 23.6499 12.3681 23.3567L14.9094 20.8154L17.4507 23.3567C17.9394 23.8454 18.8191 23.8454 19.3078 23.3567C19.7965 22.868 19.7965 21.9883 19.3078 21.4996L16.7665 18.9583Z" fill="#1171C2"/>
</svg>
