<svg width="30" height="30" viewBox="0 0 30 30" fill="none" xmlns="http://www.w3.org/2000/svg">
<path d="M15 14.7C17.6 14.7 19.6 12.6 19.6 10.1C19.6 7.5 17.5 5.5 15 5.5C12.5 5.5 10.4 7.6 10.4 10.1C10.4 12.6 12.4 14.7 15 14.7ZM15 8.2C16.1 8.2 16.9 9.1 16.9 10.1C16.9 11.2 16 12 15 12C13.9 12 13.1 11.1 13.1 10.1C13.1 9 13.9 8.2 15 8.2Z" fill="#F4F4F4"/>
<path d="M16.9 18.4999C17.8 18.2999 18.8 17.8999 19.6 17.3999C20.2 16.9999 20.4 16.1999 20 15.4999C19.6 14.8999 18.8 14.6999 18.1 15.0999C16.2 16.2999 13.7 16.2999 11.8 15.0999C11.2 14.6999 10.3 14.8999 9.9 15.4999C9.5 16.0999 9.7 16.9999 10.3 17.3999C11.1 17.8999 12.1 18.2999 13 18.4999L10.4 21.0999C9.9 21.5999 9.9 22.4999 10.4 22.9999C10.7 23.2999 11 23.4 11.4 23.4C11.7 23.4 12.1 23.2999 12.4 22.9999L15 20.3999L17.6 22.9999C18.1 23.4999 19 23.4999 19.5 22.9999C20 22.4999 20 21.5999 19.5 21.0999L16.9 18.4999Z" fill="#F4F4F4"/>
</svg>
