<svg width="24" height="24" viewBox="0 0 24 24" fill="none" xmlns="http://www.w3.org/2000/svg">
<path d="M19.6682 4.00174C19.4458 4.01762 19.2275 4.06912 19.0218 4.15422H19.019C18.8217 4.23164 17.8808 4.62341 16.4582 5.21412L11.3442 7.3433C7.6756 8.87145 4.06963 10.3757 4.06963 10.3757L4.11278 10.3597C3.93285 10.4234 3.76198 10.5098 3.60442 10.6168C3.44399 10.7177 3.3059 10.8497 3.19848 11.0049C3.04576 11.2278 2.97773 11.4971 3.00643 11.7649C3.03518 11.9586 3.10528 12.144 3.21207 12.3088C3.31885 12.4736 3.45988 12.614 3.62576 12.7207C3.76801 12.8208 3.92259 12.9027 4.08575 12.9642H4.0886L7.47027 14.0902C7.62154 14.5721 8.50122 17.4309 8.71178 18.0891C8.79071 18.3871 8.92569 18.6678 9.10965 18.9163C9.18137 19.0118 9.27027 19.0934 9.37189 19.157C9.41236 19.1805 9.4549 19.2003 9.49898 19.2161C9.51232 19.2234 9.52699 19.2281 9.54214 19.2297L9.50705 19.2218C9.51632 19.2258 9.52535 19.2303 9.53408 19.2354C9.56065 19.2427 9.58776 19.2481 9.61517 19.2513C9.77938 19.2964 9.95168 19.3047 10.1195 19.2755C10.2874 19.2464 10.4465 19.1806 10.5854 19.0829L10.6096 19.0641L12.6061 17.2652L15.9527 19.8054L16.0285 19.8373C16.313 19.9676 16.6273 20.0211 16.9394 19.9925C17.2516 19.9638 17.5505 19.8539 17.8059 19.6741C18.033 19.4915 18.2119 19.2573 18.3276 18.9914L18.3517 18.9299L20.9367 5.82313C21.0172 5.52189 21.021 5.2056 20.9476 4.90258C20.864 4.60506 20.671 4.34919 20.4065 4.18519C20.1845 4.05229 19.9273 3.98838 19.6682 4.00174ZM19.598 5.4093C19.5997 5.44996 19.595 5.49062 19.5842 5.52989V5.53786L17.0234 18.5086C17.0041 18.5471 16.9764 18.5809 16.9424 18.6076C16.8883 18.6503 16.8451 18.677 16.6204 18.5888L12.5274 15.4837L10.0548 17.7133L10.5764 14.4318L17.2629 8.26479C17.5389 8.01049 17.4469 7.957 17.4469 7.957C17.4659 7.6464 17.0301 7.86598 17.0301 7.86598L8.5937 13.0313L8.59085 13.0177L4.55049 11.6716V11.6688C4.54764 11.6688 4.54243 11.6659 4.53958 11.6659C4.54701 11.6637 4.5543 11.6611 4.5614 11.658L4.58321 11.6472L4.60502 11.6392L11.8824 8.60636C13.7196 7.84064 15.57 7.06976 16.9926 6.47577C18.4153 5.88178 19.4681 5.45059 19.5273 5.42666C19.5866 5.40274 19.5572 5.40555 19.5956 5.40555L19.598 5.4093Z" fill="#0088CC"/>
</svg>
