<svg width="30" height="30" viewBox="0 0 30 30" fill="none" xmlns="http://www.w3.org/2000/svg">
<path d="M26.1909 22H23.5866C22.5944 22 22.3464 21.2821 20.4862 19.4872C18.874 18.0513 18.2539 17.812 17.8818 17.812C17.3858 17.812 17.1378 17.9316 17.1378 18.6496V20.9231C17.1378 21.5214 16.8897 21.8803 15.2775 21.8803C12.5492 21.8803 9.4488 20.2051 7.21652 17.2137C3.99212 12.7863 3 9.4359 3 8.71795C3 8.35897 3.12402 8 3.86811 8H6.47243C7.09251 8 7.34054 8.23932 7.58857 8.95727C8.82872 12.547 11.061 15.7778 11.9291 15.7778C12.3012 15.7778 12.4252 15.6581 12.4252 14.8205V11.1111C12.3012 9.4359 11.433 9.19658 11.433 8.59829C11.433 8.35897 11.6811 8 12.0531 8H16.1456C16.7657 8 16.8897 8.23932 16.8897 8.95727V13.9829C16.8897 14.5812 17.1378 14.7009 17.2618 14.7009C17.6338 14.7009 17.8818 14.4615 18.5019 13.8632C20.3622 11.8291 21.7263 8.71795 21.7263 8.71795C21.8503 8.35897 22.2224 8 22.8425 8H25.4468C26.1909 8 26.4389 8.35898 26.1909 8.95727C25.8188 10.3932 22.5944 14.8205 22.5944 14.8205C22.3464 15.2991 22.2224 15.4188 22.5944 15.8974C22.8425 16.2564 23.8346 16.9744 24.4547 17.6923C25.5708 18.8889 26.4389 19.9658 26.6869 20.6838C27.307 21.641 26.935 22 26.1909 22Z" fill="#1171C2"/>
</svg>
