<svg width="30" height="30" viewBox="0 0 30 30" fill="none" xmlns="http://www.w3.org/2000/svg">
<path d="M23.3932 20H21.4399C20.6958 20 20.5098 19.4359 19.1146 18.0256C17.9055 16.8974 17.4404 16.7094 17.1614 16.7094C16.7893 16.7094 16.6033 16.8034 16.6033 17.3675V19.1538C16.6033 19.6239 16.4173 19.906 15.2081 19.906C13.1619 19.906 10.8366 18.5897 9.16239 16.2393C6.74409 12.7607 6 10.1282 6 9.5641C6 9.28205 6.09301 9 6.65108 9H8.60432C9.06938 9 9.2554 9.18804 9.44143 9.75214C10.3715 12.5727 12.0457 15.1111 12.6968 15.1111C12.9759 15.1111 13.0689 15.0171 13.0689 14.359V11.4444C12.9759 10.1282 12.3248 9.94017 12.3248 9.47009C12.3248 9.28205 12.5108 9 12.7898 9H15.8592C16.3243 9 16.4173 9.18804 16.4173 9.75214V13.7009C16.4173 14.1709 16.6033 14.265 16.6963 14.265C16.9754 14.265 17.1614 14.0769 17.6264 13.6068C19.0216 12.0085 20.0447 9.5641 20.0447 9.5641C20.1378 9.28205 20.4168 9 20.8818 9H22.8351C23.3932 9 23.5792 9.28205 23.3932 9.75214C23.1141 10.8803 20.6958 14.359 20.6958 14.359C20.5098 14.735 20.4168 14.8291 20.6958 15.2051C20.8818 15.4872 21.6259 16.0513 22.091 16.6154C22.9281 17.5556 23.5792 18.4017 23.7652 18.9658C24.2303 19.7179 23.9512 20 23.3932 20Z" fill="#F4F4F4"/>
</svg>
