<svg width="30" height="30" fill="none" xmlns="http://www.w3.org/2000/svg"><path d="M14.998 10.382A4.611 4.611 0 0010.38 15a4.611 4.611 0 004.618 4.618A4.611 4.611 0 0019.615 15a4.611 4.611 0 00-4.617-4.618zm0 7.62A3.008 3.008 0 0111.996 15a3.008 3.008 0 013.002-3.001 3.008 3.008 0 013 3.001 3.008 3.008 0 01-3 3.001zm4.807-8.885a1.077 1.077 0 100 2.157 1.076 1.076 0 00.996-1.492 1.076 1.076 0 00-.996-.665zM23.998 15c0-1.243.011-2.474-.058-3.715-.07-1.441-.4-2.72-1.453-3.774-1.056-1.056-2.332-1.382-3.773-1.452-1.243-.07-2.475-.058-3.715-.058-1.243 0-2.475-.012-3.715.058-1.441.07-2.72.399-3.774 1.452-1.055 1.056-1.38 2.333-1.45 3.774-.07 1.243-.058 2.474-.058 3.715 0 1.24-.012 2.474.058 3.715.07 1.441.399 2.72 1.452 3.774 1.056 1.055 2.333 1.382 3.774 1.452 1.243.07 2.474.058 3.715.058 1.243 0 2.474.012 3.715-.058 1.44-.07 2.72-.399 3.773-1.452 1.056-1.056 1.383-2.333 1.453-3.774.072-1.24.058-2.472.058-3.715zm-1.981 5.31a2.86 2.86 0 01-.68 1.03 2.88 2.88 0 01-1.031.68c-1.185.47-3.997.365-5.31.365-1.312 0-4.126.106-5.31-.363a2.861 2.861 0 01-1.032-.68 2.88 2.88 0 01-.68-1.03c-.468-1.187-.362-4-.362-5.312 0-1.313-.106-4.127.362-5.311.165-.41.363-.716.68-1.032a2.91 2.91 0 011.031-.68c1.185-.468 3.999-.362 5.312-.362 1.312 0 4.127-.106 5.31.363.41.164.717.362 1.032.68.317.317.516.62.68 1.03.468 1.185.362 4 .362 5.312 0 1.313.106 4.125-.364 5.31z" fill="#1171C2"/></svg>