<svg width="30" height="30" fill="none" xmlns="http://www.w3.org/2000/svg"><path d="M26.19 22h-2.603c-.993 0-1.24-.718-3.1-2.513-1.613-1.436-2.233-1.675-2.605-1.675-.496 0-.744.12-.744.838v2.273c0 .598-.248.957-1.86.957-2.729 0-5.83-1.675-8.061-4.666C3.992 12.786 3 9.436 3 8.718 3 8.359 3.124 8 3.868 8h2.604c.62 0 .869.24 1.117.957 1.24 3.59 3.472 6.82 4.34 6.82.372 0 .496-.119.496-.957v-3.709c-.124-1.675-.992-1.914-.992-2.513 0-.239.248-.598.62-.598h4.093c.62 0 .744.24.744.957v5.026c0 .598.248.718.372.718.372 0 .62-.24 1.24-.838 1.86-2.034 3.224-5.145 3.224-5.145.124-.359.496-.718 1.117-.718h2.604c.744 0 .992.359.744.957-.372 1.436-3.597 5.863-3.597 5.863-.248.48-.372.599 0 1.077.248.36 1.24 1.077 1.86 1.795 1.117 1.197 1.985 2.274 2.233 2.992.62.957.248 1.316-.496 1.316z" fill="#1171C2"/></svg>