<svg xmlns="http://www.w3.org/2000/svg" width="372.763" height="23.303" fill="none"><path fill-rule="evenodd" clip-rule="evenodd" d="M373.014 5.17l-.087-11.93L.165-7.936.66 3.996l11.57 11.409L23.875 4.069l11.57 11.409L47.09 4.143 58.662 15.55 70.305 4.216l11.572 11.408L93.521 4.29l11.572 11.409 11.644-11.336 11.571 11.409 11.644-11.335 11.572 11.408L163.167 4.51l11.572 11.408 11.644-11.335 11.572 11.409L209.6 4.655l11.571 11.409 11.644-11.335 11.572 11.408L256.03 4.802l11.573 11.408 11.643-11.335 11.572 11.409 11.644-11.336 11.572 11.409L325.677 5.02l11.572 11.409 11.643-11.335 11.572 11.408z" fill="navy"/><path d="M261.93 10.142l-5.814-5.694-2.788 2.659a3423.17 3423.17 0 00-5.814 5.562l-3.026 2.903-5.938-5.588-5.939-5.587-5.625 5.611-5.624 5.611-1.483-1.33c-.815-.73-3.468-3.265-5.895-5.631l-4.413-4.302-3.51 3.39a879.948 879.948 0 01-5.892 5.637l-2.382 2.248-5.547-5.534c-3.051-3.044-5.745-5.534-5.987-5.534s-2.938 2.493-5.992 5.54l-5.553 5.539-5.772-5.734-5.772-5.734-5.845 5.662-5.845 5.661-5.753-5.74-5.754-5.741-5.832 5.678-5.832 5.678-5.772-5.737-5.772-5.738-5.553 5.54c-3.054 3.046-5.75 5.539-5.992 5.539s-2.935-2.49-5.986-5.533L93.682 3.91l-2.157 2.019a627.136 627.136 0 00-5.893 5.638l-3.737 3.618-5.55-5.537c-3.054-3.046-5.75-5.538-5.991-5.538-.242 0-2.938 2.492-5.991 5.538l-5.552 5.538-4.189-4.075c-2.303-2.241-4.944-4.765-5.867-5.608l-1.678-1.532-5.807 5.462-5.807 5.461-5.644-5.37c-3.104-2.954-5.845-5.38-6.09-5.392-.245-.012-2.931 2.457-5.968 5.487l-5.522 5.508-5.658-5.621L.924 3.884.615-1.962.307-7.807l78.486.299c43.167.165 126.922.434 186.122.6l107.637.3.006 4.793c.004 2.636.117 5.205.252 5.709.197.732-.985 2.021-5.913 6.451-3.387 3.045-6.305 5.536-6.484 5.536-.18 0-2.764-2.444-5.744-5.433-2.98-2.988-5.593-5.432-5.806-5.432-.213 0-2.923 2.485-6.021 5.523l-5.634 5.524-5.537-5.524c-3.046-3.038-5.722-5.523-5.948-5.523-.225 0-2.937 2.477-6.026 5.506l-5.615 5.505-5.757-5.744-5.757-5.744-5.867 5.634-5.867 5.635-5.773-5.73-5.772-5.728-5.772 5.742-5.773 5.743z" fill="#00f"/><path d="M261.87 9.78l-5.874-5.581-5.575 5.388c-3.066 2.964-5.722 5.389-5.903 5.389-.18 0-2.947-2.47-6.147-5.487l-5.818-5.487-5.579 5.565c-5.049 5.038-5.656 5.508-6.399 4.95-.45-.338-3.112-2.866-5.913-5.616l-5.093-5.002-4.64 4.534c-2.553 2.494-5.192 5.013-5.866 5.598l-1.225 1.064-5.526-5.266c-3.04-2.896-5.766-5.266-6.059-5.266-.293 0-3.025 2.376-6.072 5.279l-5.54 5.28-5.519-5.506c-3.035-3.028-5.717-5.506-5.958-5.506-.242 0-2.939 2.493-5.992 5.54l-5.553 5.539-5.552-5.54c-3.054-3.046-5.754-5.53-6-5.52-.245.012-2.992 2.446-6.105 5.41l-5.659 5.391-5.772-5.743-5.772-5.743-5.553 5.54c-3.054 3.046-5.75 5.54-5.992 5.54s-2.938-2.493-5.991-5.539l-5.551-5.538-4.19 4.075c-2.303 2.241-4.94 4.762-5.86 5.603l-1.673 1.527-5.532-5.27c-3.042-2.9-5.77-5.272-6.063-5.272-.293 0-3.022 2.373-6.065 5.272l-5.533 5.273-1.898-1.757a465.51 465.51 0 01-5.813-5.558l-3.916-3.8-4.233 4.004c-2.329 2.202-4.95 4.667-5.825 5.48l-1.591 1.475-5.6-5.194C26.8 6.448 24.035 4.11 23.736 4.11c-.3 0-3.04 2.377-6.088 5.281l-5.542 5.282-5.51-5.51-5.51-5.51L.799-1.89C.64-4.94.543-7.472.58-7.518c.11-.135 273.045.747 324.774 1.05l47.197.276v5.18c0 2.85-.188 5.534-.419 5.964-.422.789-9.986 9.479-11.193 10.17-.473.271-2.149-1.07-6.112-4.89-3.003-2.896-5.736-5.203-6.074-5.127-.338.075-3.069 2.446-6.068 5.267l-5.454 5.13-5.503-5.243c-3.027-2.884-5.732-5.243-6.012-5.243-.28 0-3.014 2.375-6.074 5.277l-5.564 5.278-5.517-5.504c-3.035-3.027-5.685-5.504-5.89-5.504-.204 0-2.95 2.444-6.1 5.431l-5.728 5.432-5.777-5.765-5.778-5.764-5.772 5.732-5.772 5.732z" fill="#1171c2"/><path d="M146.18 9.53c-3.391-3.403-5.717-5.4-6.202-5.32-.426.07-3.244 2.45-6.262 5.289l-5.488 5.162-5.735-5.7-5.734-5.699-5.561 5.404c-3.059 2.973-5.728 5.404-5.931 5.404-.204 0-2.906-2.424-6.005-5.386l-5.635-5.386-5.638 5.364c-3.1 2.951-5.792 5.375-5.981 5.387-.189.012-2.728-2.22-5.644-4.959-2.915-2.739-5.62-4.98-6.01-4.98-.39 0-3.095 2.241-6.01 4.98-2.916 2.74-5.423 4.98-5.572 4.98-.148 0-2.84-2.429-5.98-5.398l-5.71-5.399-5.778 5.436-5.78 5.435-5.544-5.017c-3.05-2.76-5.866-5.017-6.256-5.017-.391 0-3.096 2.241-6.012 4.98-2.915 2.74-5.458 4.98-5.65 4.98-.194 0-2.725-2.393-5.626-5.32L1.16 3.432l-.153-5.32-.154-5.319 38.485-.004c62.659-.006 299.728.88 317.029 1.186l15.959.281v4.912c0 4.895-.005 4.917-1.472 6.59-.81.924-3.373 3.374-5.697 5.445-3.294 2.935-4.392 3.676-4.98 3.361-.415-.222-2.984-2.461-5.709-4.975-2.725-2.515-5.222-4.572-5.55-4.572-.566 0-7.507 5.995-9.41 8.129-2.003 2.245-2.106 2.203-7.791-3.138-2.923-2.745-5.626-4.99-6.008-4.989-.381.002-3.087 2.243-6.012 4.98-2.925 2.738-5.475 4.978-5.667 4.978-.191 0-2.684-2.343-5.54-5.207-2.855-2.863-5.46-5.206-5.788-5.206-.329 0-3.151 2.373-6.272 5.274l-5.675 5.274-5.737-5.725-5.737-5.724-5.765 5.764-5.764 5.765-3.965-3.85c-2.18-2.116-4.833-4.653-5.894-5.636l-1.929-1.788-3.051 2.929c-7.878 7.561-8.146 7.785-8.85 7.387-.38-.214-3.119-2.667-6.088-5.452l-5.4-5.062-3.58 3.624c-1.97 1.994-4.553 4.448-5.742 5.454l-2.161 1.828-5.774-5.433-5.775-5.433-5.646 5.362c-3.106 2.95-5.803 5.372-5.995 5.383-.19.01-2.72-2.222-5.618-4.961-2.9-2.739-5.602-4.98-6.006-4.98-.404 0-3.12 2.241-6.035 4.98-2.916 2.74-5.459 4.98-5.652 4.98-.192 0-2.686-2.343-5.542-5.206-2.855-2.864-5.497-5.207-5.871-5.207-.374 0-3.131 2.445-6.126 5.433l-5.447 5.433z" fill="#1171c2"/></svg>