<svg width="39" height="41" fill="none" xmlns="http://www.w3.org/2000/svg"><path d="M2.714 0v5.423H.602v2.398h2.112v4.541H.602v2.398h2.112v4.54H.602v2.4h2.112v4.541H.602v2.398h2.112v4.541H.602v2.398h2.112V41h35.684V0H2.714zm33.282 38.602H5.116v-3.025H7.23v-2.398H5.117v-4.541h2.112V26.24H5.117V21.7h2.112v-2.4H5.117v-4.54h2.112v-2.398H5.117V7.821h2.112V5.423H5.117V2.398h30.88v36.204z" fill="#1171C2"/><path d="M23.76 9.354h7.79v2.397h-7.79V9.354zm0 9.954h7.79v2.398h-7.79v-2.398zm0 10.74h7.79v2.398h-7.79v-2.398zM20.078 8.313L18.38 6.618l-3.886 3.878L12.696 8.7l-1.699 1.695 3.497 3.49 5.584-5.573zm0 10.102L18.38 16.72l-3.886 3.877-1.798-1.795-1.699 1.696 3.497 3.49 5.584-5.573zm0 10.102L18.38 26.82l-3.886 3.88-1.798-1.795-1.699 1.695 3.497 3.49 5.584-5.572z" fill="#1171C2"/></svg>