<svg width="32" height="48" fill="none" xmlns="http://www.w3.org/2000/svg"><path d="M7.206 23.382a2.705 2.705 0 00-2.702-2.702 2.705 2.705 0 00-2.702 2.702 2.705 2.705 0 002.702 2.703 2.705 2.705 0 002.702-2.703zm-2.702.901a.902.902 0 010-1.801.902.902 0 010 1.801zM.9 36.893h.901v9.908a.9.9 0 00.901.901h3.603a.9.9 0 00.9-.9v-9.909h.902a.9.9 0 00.9-.9v-5.405a4.509 4.509 0 00-4.503-4.503A4.509 4.509 0 000 30.588v5.405a.9.9 0 00.9.9zm.901-6.305a2.705 2.705 0 012.703-2.702 2.705 2.705 0 012.702 2.702v4.504h-.9a.9.9 0 00-.902.9v9.909H3.603v-9.908a.9.9 0 00-.9-.901H1.8v-4.504zm10.809-7.206a2.705 2.705 0 002.703 2.703 2.705 2.705 0 002.702-2.703 2.705 2.705 0 00-2.702-2.702 2.705 2.705 0 00-2.703 2.702zm3.603 0a.902.902 0 01-1.801 0 .902.902 0 011.801 0zm-5.404 7.206v5.405a.9.9 0 00.9.9h.901v9.908a.9.9 0 00.901.901h3.603a.9.9 0 00.9-.9v-9.909h.902a.9.9 0 00.9-.9v-5.405a4.509 4.509 0 00-4.503-4.503 4.509 4.509 0 00-4.504 4.503zm1.801 0a2.705 2.705 0 012.703-2.702 2.705 2.705 0 012.702 2.702v4.504h-.901a.9.9 0 00-.9.9v9.909h-1.802v-9.908a.9.9 0 00-.901-.901h-.9v-4.504zm16.213-7.206a2.705 2.705 0 00-2.702-2.702 2.705 2.705 0 00-2.702 2.702 2.705 2.705 0 002.702 2.703 2.705 2.705 0 002.703-2.703zm-2.702.901a.902.902 0 010-1.801.902.902 0 010 1.801zm-4.503 6.305v5.405a.9.9 0 00.9.9h.901v9.908a.9.9 0 00.9.901h3.604a.9.9 0 00.9-.9v-9.909h.901a.9.9 0 00.901-.9v-5.405a4.509 4.509 0 00-4.504-4.503 4.509 4.509 0 00-4.503 4.503zm1.801 0a2.705 2.705 0 012.702-2.702 2.705 2.705 0 012.703 2.702v4.504h-.901a.9.9 0 00-.9.9v9.909H25.22v-9.908a.9.9 0 00-.901-.901h-.9v-4.504zm-2.873-13.523l-5.487-5.495-5.487 5.495-1.225-1.225 5.495-5.487-5.495-5.487 1.225-1.225 5.487 5.496 5.487-5.487 1.216 1.216-5.487 5.487 5.487 5.487-1.216 1.225z" fill="#1171C2"/></svg>