<svg width="36" height="37" fill="none" xmlns="http://www.w3.org/2000/svg"><path d="M29.282 34.78v1.42h6.43v-9.94h-1.429v8.52h-5.001z" fill="#1171C2"/><path fill-rule="evenodd" clip-rule="evenodd" d="M35.712 24.84V8.51a.708.708 0 00-.21-.503l-7.144-7.1a.717.717 0 00-.505-.208H1.418a.712.712 0 00-.715.71V35.49c0 .392.32.71.715.71h27.864v-1.42H2.132V2.119h25.425l5.716 5.68h-4.706V4.25h-1.429v4.26c0 .392.32.71.715.71h6.43v17.04h1.429v-1.42z" fill="#1171C2"/><path d="M15.758 15.366l-4.042-4.017 4.042-4.016a.707.707 0 000-1.004 7.119 7.119 0 00-5.052-2.08 7.119 7.119 0 00-5.052 2.08 7.03 7.03 0 00-2.093 5.02 7.03 7.03 0 002.093 5.02 7.119 7.119 0 005.052 2.08 7.119 7.119 0 005.052-2.08.707.707 0 000-1.003zm-5.052 1.664a5.696 5.696 0 01-4.042-1.664 5.625 5.625 0 01-1.674-4.017c0-1.517.594-2.943 1.674-4.016a5.696 5.696 0 014.042-1.664c1.286 0 2.507.42 3.505 1.193l-4.01 3.985a.707.707 0 000 1.004l4.01 3.986a5.695 5.695 0 01-3.505 1.193z" fill="#1171C2"/><path d="M15.202 11.851l4.546 4.519a.715.715 0 001.01 0 7.03 7.03 0 002.094-5.02 7.03 7.03 0 00-2.093-5.021.717.717 0 00-1.01 0l-4.547 4.518a.707.707 0 000 1.004zm5.02-3.985a5.614 5.614 0 011.2 3.483 5.614 5.614 0 01-1.2 3.484l-3.505-3.484 3.506-3.483zM24.28 25.55c0-.392-.32-.71-.714-.71h-2.143v-1.42c0-.392-.32-.71-.715-.71H17.85a.712.712 0 00-.714.71v3.55h-2.144a.712.712 0 00-.714.71v3.55h-1.429v1.42h12.86v-1.42h-1.428v-5.68zm-8.573 2.84h1.429v2.84h-1.43v-2.84zm2.858-.71v-3.55h1.429v7.1h-1.43v-3.55zm2.858 3.55v-4.97h1.429v4.97h-1.43zm3.572-19.17h7.145v1.42h-7.145v-1.42zm0 2.84h7.145v1.42h-7.145V14.9zm0 2.84h7.145v1.42h-7.145v-1.42z" fill="#1171C2"/></svg>