<svg width="38" height="38" fill="none" xmlns="http://www.w3.org/2000/svg"><path fill-rule="evenodd" clip-rule="evenodd" d="M33.46 17.848l.102.188a16.946 16.946 0 012.061 8.027l1.297 7.78H13.656v.594a2.972 2.972 0 01-2.969 2.97H3.564a2.972 2.972 0 01-2.97-2.97v-19c0-3.4 2.614-6.2 5.938-6.5v-1.32c0-.476.186-.924.522-1.26l5.242-5.241a1.77 1.77 0 011.26-.522h18.508c.982 0 1.78.799 1.78 1.781v7.873a2.69 2.69 0 01.87-.154 2.696 2.696 0 012.693 2.693c0 .719-.28 1.395-.788 1.904l-3.158 3.157zm-4.825 9.406l5.788-1.579c-.07-2.421-.7-4.81-1.842-6.948L28.5 22.808v.942h-1.188v-4.156c0-.655-.532-1.188-1.187-1.188v5.413c0 .907.406 1.751 1.114 2.319l1.396 1.116zm-3.698-8.848c0-.655.533-1.187 1.188-1.187.09 0 .177.012.263.024l.053.008 1.22-1.22h-1.536a2.377 2.377 0 00-2.375 2.375V19a.595.595 0 001.188 0v-.594zm-4.533 6.995l-.781 1.954a.39.39 0 00-.03.15c0 .272.3.475.551.373l1.955-.782-1.695-1.695zm.623-1.057l2.13 2.129 1.861-1.863a4.174 4.174 0 01-.08-.792v-3.147a1.732 1.732 0 01-.32.082l-3.59 3.59zm-4.996-7.125V30.28h11.875v-2.09l-1.187-.95-1.252-1.4-1.977 1.977-.334.134-1.187.475-1.383.553a1.588 1.588 0 01-2.122-1.074l.134-1.187.95-2.375.987-1.188 2.375-2.375-.238-1.187a1.762 1.762 0 01-.11-.594v-.594c0-.417.076-.815.208-1.187h-6.739zm19.747-3.367a1.508 1.508 0 00-2.13-2.13l-6.035 6.036a2.36 2.36 0 01.887 1.836v1.535l7.278-7.277zm-23.31-7.915V2.622l-3.91 3.91h3.317a.595.595 0 00.594-.593zm0 9.5a5.35 5.35 0 00-5.343-5.343 5.35 5.35 0 00-5.344 5.344 5.35 5.35 0 005.344 5.343 5.35 5.35 0 005.344-5.343zM7.126 21.97a6.489 6.489 0 01-2.969-.721v3.096h5.938v-3.096c-.892.457-1.9.72-2.969.72zM3.563 36.22h7.126c.982 0 1.78-.8 1.78-1.782V19.181a6.523 6.523 0 01-1.187 1.29v3.873c0 .655-.532 1.187-1.187 1.187H4.156a1.189 1.189 0 01-1.187-1.187v-3.872a6.594 6.594 0 01-1.188-1.29v15.256c0 .982.8 1.78 1.782 1.78zm10.094-20.782v17.22h14.25V31.47H14.844V16.03h8.633a3.552 3.552 0 012.648-1.187h2.723l3.808-3.809v-8.66a.595.595 0 00-.593-.594H13.655v4.157c0 .982-.799 1.78-1.781 1.78H7.719v1.219c3.324.3 5.937 3.1 5.937 6.5zM29.094 28.36v4.296h6.423l-.964-5.785-5.46 1.489z" fill="#1171C2"/><path d="M10.094 26.719H4.156c-.655 0-1.187.532-1.187 1.187v5.938c0 .655.532 1.187 1.187 1.187h5.938c.655 0 1.187-.532 1.187-1.187v-5.938c0-.655-.532-1.187-1.187-1.187zm0 2.375H8.906v-1.188h1.188v1.188zm-2.375 4.75H6.53v-1.188h1.19v1.188zm0-2.375H6.53V30.28h1.19v1.188zm-2.375 0H4.156V30.28h1.188v1.188zm1.187-2.375v-1.188H7.72v1.188H6.53zm-1.187-1.188v1.188H4.156v-1.188h1.188zm-1.188 4.75h1.188v1.188H4.156v-1.188zm4.75 1.188V30.28h1.188v3.563H8.907zm5.938-29.32h16.625V5.71H14.844V4.524zm0 3.28h16.625V8.99H14.844V7.804z" fill="#1171C2"/></svg>