<svg width="43" height="42" fill="none" xmlns="http://www.w3.org/2000/svg"><g clip-path="url(#clip0)" fill="#1171C2"><path d="M42.661 19.253l-8.628-7.314V1.083a.974.974 0 00-.983-.96h-6.584a.974.974 0 00-.983.96v3.225l-2.997-2.467a1.012 1.012 0 00-1.268 0L.345 19.244a.942.942 0 00-.147 1.305l1.867 2.438c.324.422.943.509 1.376.192a.631.631 0 00.088-.077l.521-.49v18.305c0 .528.442.96.983.96h32.626c.54 0 .983-.432.983-.96v-18.41l.668.595a.996.996 0 001.386-.057l.039-.039 2.044-2.419a.948.948 0 00-.118-1.334zM39.88 21l-1.543-1.392a.996.996 0 00-1.386.058.943.943 0 00-.255.653v19.639H6.026v-19.6a.974.974 0 00-.983-.96.97.97 0 00-.678.268l-1.386 1.296-.649-.845 19.527-16.28 3.98 3.274a.999.999 0 001.386-.115.951.951 0 00.226-.615V2.043h4.618V12.37c0 .278.128.537.334.72l8.245 6.997-.766.912z"/><path d="M33.561 26.231l-2.044-.912-1.828-2.87a3.481 3.481 0 00-2.938-1.593h-8.127c-1.081 0-2.103.5-2.752 1.334l-2.378 3.043-3.99 1.065c-1.238.336-2.093 1.43-2.103 2.678v1.536c0 1.536 1.288 2.822 2.85 2.822h.04c.49 1.248 1.778 2.246 3.282 2.246 1.503 0 2.79-.998 3.282-2.246h8.638c.491 1.248 1.779 2.246 3.282 2.246 1.504 0 2.791-.998 3.283-2.246h.344c1.572 0 2.81-1.286 2.81-2.822v-1.756c.01-1.085-.639-2.074-1.65-2.525zm-19.988 7.382c-.846 0-1.533-.672-1.533-1.498 0-.825.688-1.497 1.533-1.497s1.533.672 1.533 1.497c0 .835-.688 1.498-1.533 1.498zm15.202 0c-.845 0-1.533-.672-1.533-1.498 0-.825.688-1.497 1.533-1.497.846 0 1.533.672 1.533 1.497a1.518 1.518 0 01-1.533 1.498zm4.472-3.091c0 .47-.364.902-.845.902h-.217c-.422-1.843-2.29-2.995-4.176-2.582-1.317.288-2.349 1.296-2.644 2.582h-8.382c-.413-1.843-2.27-3.014-4.157-2.61a3.454 3.454 0 00-2.663 2.572.88.88 0 01-.796-.864v-1.536c0-.384.265-.73.648-.825l4.304-1.152a.96.96 0 00.521-.346l2.585-3.311a1.512 1.512 0 011.189-.576h8.127a1.48 1.48 0 011.268.69l2.005 3.12a.912.912 0 00.422.365l2.3 1.027c.324.144.52.451.51.787v1.757z"/></g><defs><clipPath id="clip0"><path fill="#fff" d="M0 0h43v42H0z"/></clipPath></defs></svg>