<svg width="38" height="38" fill="none" xmlns="http://www.w3.org/2000/svg"><path d="M30.897 17.979l-5.377-5.378V3.34A3.344 3.344 0 0022.18 0H7.633a3.344 3.344 0 00-3.34 3.34v31.32A3.344 3.344 0 007.633 38h22.711c.53 0 .987-.374 1.091-.894l2.075-10.327c.648-3.226-.328-6.516-2.613-8.8zM7.633 2.227H22.18c.614 0 1.113.499 1.113 1.113V17.7a3.486 3.486 0 00-4.915.016 3.487 3.487 0 00-.01 4.925l4.265 4.434c-.924.69-2.122 1.894-2.982 3.874H6.52V3.34c0-.613.5-1.112 1.113-1.112zM6.52 34.66v-1.484h12.41a15.97 15.97 0 00-.356 2.597H7.633A1.114 1.114 0 016.52 34.66zm24.807-8.32l-1.895 9.433h-8.625c.16-2.364.841-4.346 1.992-5.776.955-1.186 1.927-1.611 2.004-1.644.728-.26.989-1.206.406-1.812l-5.257-5.465a1.261 1.261 0 011.78-1.788c2.354 2.407 1.21 1.252 5.329 5.37a1.113 1.113 0 101.574-1.574L25.52 19.97v-4.22l3.803 3.803c1.756 1.756 2.505 4.293 2.004 6.787z" fill="#1171C2"/><path d="M18.188 11.902L16.283 10l-4.36 4.35-2.017-2.013L8 14.239l3.924 3.916 6.264-6.253z" fill="#1171C2"/></svg>