<svg width="38" height="34" fill="none" xmlns="http://www.w3.org/2000/svg"><path d="M31 16c0 8.284-6.716 15-15 15-8.284 0-15-6.716-15-15C1 7.716 7.716 1 16 1c8.284 0 15 6.716 15 15z" stroke="#1171C2" stroke-width="2"/><path fill-rule="evenodd" clip-rule="evenodd" d="M23.951 7.34a.961.961 0 01.28.682.968.968 0 01-.28.68L8.646 24.11a.957.957 0 01-1.043.209.957.957 0 01-.59-.89.968.968 0 01.28-.68L22.599 7.34a.956.956 0 011.352 0zm-13.686 5.304a2.29 2.29 0 001.624-.677 2.319 2.319 0 000-3.268 2.288 2.288 0 00-3.247 0 2.319 2.319 0 000 3.268c.43.433 1.014.677 1.623.677zm0 1.54a3.814 3.814 0 002.706-1.128 3.865 3.865 0 001.12-2.723 3.865 3.865 0 00-1.12-2.724 3.814 3.814 0 00-2.706-1.128A3.814 3.814 0 007.56 7.61a3.864 3.864 0 00-1.121 2.724c0 1.021.403 2.001 1.12 2.723a3.814 3.814 0 002.706 1.128zm10.714 9.244c.61 0 1.193-.243 1.624-.677a2.319 2.319 0 000-3.268 2.288 2.288 0 00-3.247 0 2.319 2.319 0 000 3.268c.43.434 1.014.677 1.623.677zm0 1.54a3.814 3.814 0 002.706-1.127 3.865 3.865 0 001.12-2.724 3.865 3.865 0 00-1.12-2.723 3.814 3.814 0 00-2.706-1.128 3.814 3.814 0 00-2.706 1.128 3.864 3.864 0 00-1.12 2.723c0 1.022.403 2.001 1.12 2.724a3.814 3.814 0 002.706 1.128zM33.145 32.3a.64.64 0 01-.633-.637V20.186a.64.64 0 01.633-.637.631.631 0 01.633.637v11.475a.64.64 0 01-.633.638z" fill="#1171C2"/><path fill-rule="evenodd" clip-rule="evenodd" d="M33.593 33.389a.635.635 0 01-.69.138.636.636 0 01-.206-.138l-3.8-3.825a.64.64 0 01.448-1.09c.168 0 .33.067.449.187l3.351 3.375 3.352-3.375a.632.632 0 011.082.451.64.64 0 01-.186.452l-3.8 3.825z" fill="#1171C2"/></svg>