<svg width="39" height="39" fill="none" xmlns="http://www.w3.org/2000/svg"><g clip-path="url(#clip0)" fill="#1171C2"><path d="M14.383 8.377c0 4.618 3.765 8.376 8.393 8.376 4.627 0 8.393-3.758 8.393-8.376 0-4.62-3.766-8.377-8.393-8.377-4.628 0-8.393 3.758-8.393 8.377zm15.26 0c0 3.779-3.08 6.853-6.867 6.853s-6.867-3.074-6.867-6.853c0-3.78 3.08-6.854 6.867-6.854 3.786 0 6.867 3.075 6.867 6.854zM8.827 38.775c.295.297.777.3 1.077.006l3.699-3.637c.628-.627.82-1.556.543-2.363l.796-.766c.428-.413.992-.64 1.588-.64h10.143c1.8 0 3.5-.69 4.79-1.943.053-.051-.402.485 6.92-8.25a3.046 3.046 0 00-.362-4.294 3.064 3.064 0 00-4.282.34l-4.502 4.619a3.069 3.069 0 00-2.373-1.134h-8.508a9.86 9.86 0 00-3.82-.761c-3.675 0-6.883 1.693-8.605 4.869a2.282 2.282 0 00-2.04.63L.26 29.086a.76.76 0 000 1.074l8.567 8.616zm5.708-17.3a8.34 8.34 0 013.359.697.75.75 0 00.306.064h8.664a1.53 1.53 0 011.526 1.523c0 .84-.684 1.523-1.526 1.523H20.64a.762.762 0 100 1.523h6.225a3.052 3.052 0 003.026-3.444c4.355-4.468 4.969-5.096 4.995-5.127a1.533 1.533 0 012.151-.182c.643.543.725 1.505.18 2.15l-6.844 8.165a5.318 5.318 0 01-3.698 1.484H16.53c-.994 0-1.935.38-2.648 1.068l-.649.625-5.977-5.966c1.397-2.616 4.018-4.104 7.279-4.104zM4.97 26.527a.762.762 0 01.945-.107c.132.08-.247-.264 6.609 6.569a.762.762 0 01.004 1.073l-3.154 3.1-7.497-7.539 3.093-3.096z"/><path d="M20.386 4.432h4.991v.779h-4.99v-.78zm2.934 7.13h-.877V6.767h-2.057V5.99h4.991v.778H23.32v4.793z"/></g><defs><clipPath id="clip0"><path fill="#fff" d="M0 0h39v39H0z"/></clipPath></defs></svg>