<?xml version="1.0" encoding="UTF-8" standalone="no"?>
<svg
   xmlns:dc="http://purl.org/dc/elements/1.1/"
   xmlns:cc="http://creativecommons.org/ns#"
   xmlns:rdf="http://www.w3.org/1999/02/22-rdf-syntax-ns#"
   xmlns:svg="http://www.w3.org/2000/svg"
   xmlns="http://www.w3.org/2000/svg"
   xmlns:sodipodi="http://sodipodi.sourceforge.net/DTD/sodipodi-0.dtd"
   xmlns:inkscape="http://www.inkscape.org/namespaces/inkscape"
   width="98.626945mm"
   height="6.1654577mm"
   viewBox="0 0 372.76326 23.302518"
   fill="none"
   version="1.1"
   id="svg12"
   sodipodi:docname="actions-bg.svg"
   inkscape:version="1.0.1 (c497b03c, 2020-09-10)">
  <metadata
     id="metadata18">
    <rdf:RDF>
      <cc:Work
         rdf:about="">
        <dc:format>image/svg+xml</dc:format>
        <dc:type
           rdf:resource="http://purl.org/dc/dcmitype/StillImage" />
        <dc:title></dc:title>
      </cc:Work>
    </rdf:RDF>
  </metadata>
  <defs
     id="defs16" />
  <sodipodi:namedview
     pagecolor="#ffffff"
     bordercolor="#666666"
     borderopacity="1"
     objecttolerance="10"
     gridtolerance="10"
     guidetolerance="10"
     inkscape:pageopacity="0"
     inkscape:pageshadow="2"
     inkscape:window-width="1706"
     inkscape:window-height="908"
     id="namedview14"
     showgrid="false"
     inkscape:zoom="1.965197"
     inkscape:cx="214.95978"
     inkscape:cy="70.748169"
     inkscape:window-x="0"
     inkscape:window-y="23"
     inkscape:window-maximized="0"
     inkscape:current-layer="svg12"
     units="mm" />
  <path
     fill-rule="evenodd"
     clip-rule="evenodd"
     d="M 373.01426,5.1707863 372.92666,-6.7600567 0.16540825,-7.9359441 0.65857829,3.9961783 12.230749,15.404749 23.874659,4.0694143 35.445819,15.477982 47.089729,4.1426473 58.661889,15.551218 70.304799,4.2158793 81.876959,15.624451 93.52087,4.2891153 105.09303,15.697686 116.73694,4.3623513 128.3081,15.770919 139.95201,4.4355843 151.52418,15.844155 163.16708,4.5088163 174.73924,15.917388 186.38316,4.5820523 197.95532,15.990623 209.59922,4.6552883 221.17039,16.063856 232.8143,4.7285203 244.38646,16.137092 256.02937,4.8017533 267.60153,16.210324 279.24544,4.8749893 290.8174,16.28356 302.46101,4.9482233 314.03287,16.356794 325.67658,5.0214573 337.24854,16.430028 348.89215,5.0946923 360.46401,16.503262 Z"
     fill="white"
     id="path10"
     style="fill:#000080;stroke-width:1.00464"
     sodipodi:nodetypes="cccccccccccccccccccccccccccccccccccc" />
  <path
     style="fill:#0000ff;stroke-width:0.452731"
     d="m 261.93028,10.141505 -5.81433,-5.6934011 -2.78757,2.6587489 c -1.53316,1.4623117 -4.14942,3.9651642 -5.8139,5.5618952 l -3.02635,2.903145 -5.93848,-5.5875112 -5.93849,-5.5875116 -5.62467,5.6111638 -5.62466,5.611164 -1.48247,-1.329525 c -0.81536,-0.731238 -3.46834,-3.265515 -5.89553,-5.631726 l -4.41306,-4.3022021 -3.50974,3.3898547 c -1.93035,1.86442 -4.58163,4.4013594 -5.89173,5.6376444 l -2.38199,2.247788 -5.54734,-5.534019 c -3.05104,-3.0437111 -5.74519,-5.5340199 -5.987,-5.5340199 -0.24181,0 -2.93834,2.4926829 -5.99228,5.5392959 l -5.55263,5.539296 -5.77219,-5.7335984 -5.7722,-5.7335981 -5.8447,5.6615119 -5.8447,5.6615116 -5.75357,-5.7407957 -5.75357,-5.7407965 -5.83188,5.6782159 -5.83189,5.6782153 -5.77219,-5.7375145 -5.77219,-5.7375147 -5.55263,5.5392958 c -3.05395,3.0466124 -5.75047,5.5392954 -5.99228,5.5392954 -0.24182,0 -2.93553,-2.489873 -5.986027,-5.5330518 L 93.681672,3.9097095 91.525069,5.9289414 C 90.33894,7.039519 87.68698,9.576546 85.631829,11.566779 L 81.895188,15.185385 76.3443,9.6478236 C 73.291311,6.6021647 70.595567,4.1102618 70.353754,4.1102618 c -0.241813,0 -2.937796,2.4921406 -5.991075,5.5380901 L 58.811261,15.186442 54.622419,11.111301 C 52.318555,8.8699733 49.678398,6.3464023 48.755401,5.5033654 L 47.077226,3.9705706 41.270099,9.4325087 35.462972,14.894446 29.819066,9.5238717 C 26.714918,6.5700556 23.974373,4.1436141 23.728966,4.1317792 23.48356,4.1199448 20.797948,6.589121 17.760939,9.6188379 L 12.239105,15.127415 6.5813889,9.5056551 0.92367295,3.8838961 0.61540549,-1.9617163 0.30713806,-7.8073283 78.792652,-7.5079553 c 43.167038,0.1646551 126.922108,0.4343383 186.122388,0.5992959 l 107.63687,0.2999229 0.006,4.7935852 c 0.004,2.63647176 0.11688,5.2055146 0.25218,5.7089844 0.19683,0.7324953 -0.98463,2.0215422 -5.91299,6.4514209 -3.38741,3.044812 -6.30535,5.536022 -6.48428,5.536022 -0.17893,0 -2.76371,-2.444749 -5.74395,-5.432776 -2.98024,-2.9880265 -5.59297,-5.4327756 -5.80605,-5.4327756 -0.21309,0 -2.92262,2.4856982 -6.02119,5.5237736 l -5.63377,5.523773 -5.53707,-5.523773 c -3.04539,-3.0380754 -5.72175,-5.5237736 -5.94746,-5.5237736 -0.22572,0 -2.93734,2.4776156 -6.02584,5.5058126 l -5.61545,5.505812 -5.75695,-5.744172 -5.75695,-5.7441719 -5.8672,5.6343739 -5.86719,5.634374 -5.77232,-5.729031 -5.77232,-5.7290301 -5.77233,5.7426071 -5.77232,5.742607 z"
     id="path20" />
  <path
     style="fill:#1171c2;stroke-width:0.452731;fill-opacity:1"
     d="m 261.87028,9.7800379 -5.87432,-5.5812386 -5.57463,5.3885068 c -3.06604,2.9636789 -5.72247,5.3885069 -5.90316,5.3885069 -0.18069,0 -2.94669,-2.469152 -6.14667,-5.4870058 l -5.81814,-5.4870058 -5.57897,5.5655804 c -5.04926,5.0371312 -5.65685,5.5071462 -6.39914,4.9501552 -0.45109,-0.338483 -3.11196,-2.866041 -5.91304,-5.6167952 l -5.09287,-5.0013713 -4.64085,4.5337492 c -2.55247,2.4935623 -5.19194,5.0126663 -5.8655,5.5980093 l -1.22464,1.064259 -5.52674,-5.2661975 c -3.03971,-2.8964084 -5.7661,-5.2661974 -6.05864,-5.2661974 -0.29254,0 -3.02499,2.3755681 -6.07211,5.27904 l -5.54022,5.2790399 -5.51866,-5.5054055 c -3.03526,-3.027973 -5.71649,-5.5054057 -5.95831,-5.5054057 -0.24181,0 -2.93828,2.4926241 -5.99215,5.5391649 l -5.55249,5.5391653 -5.5525,-5.5391653 c -3.05387,-3.0465408 -5.75328,-5.5303643 -5.99869,-5.5196074 -0.24541,0.010756 -2.99281,2.4452186 -6.10534,5.4099151 l -5.65914,5.3903586 -5.77219,-5.7428013 -5.77219,-5.7428012 -5.55263,5.5392958 c -3.05395,3.0466127 -5.75047,5.5392957 -5.99228,5.5392957 -0.24182,0 -2.9378,-2.492141 -5.991079,-5.5380901 L 93.671572,3.4469022 89.48273,7.5220432 C 87.178866,9.7633706 84.54124,12.284487 83.62134,13.124524 L 81.948792,14.651865 76.417221,9.3810634 C 73.374858,6.4821225 70.646296,4.1102618 70.353754,4.1102618 c -0.292541,0 -3.021777,2.3725022 -6.064965,5.2722277 L 58.755724,14.654717 56.858305,12.897768 C 55.814727,11.931447 53.198606,9.4306484 51.044709,7.3404391 L 47.128525,3.540058 42.895544,7.5436398 c -2.32814,2.2019701 -4.949127,4.6677842 -5.824417,5.4795872 L 35.479691,14.499232 29.880244,9.304747 C 26.800548,6.4477801 24.035488,4.1102618 23.735665,4.1102618 c -0.299823,0 -3.039245,2.3765347 -6.087604,5.2811882 L 12.10559,14.672638 6.5957269,9.1632897 1.0858632,3.6539417 0.79882469,-1.8902223 C 0.64095352,-4.9395128 0.54286371,-7.4721163 0.58084733,-7.5182302 0.69194175,-7.6531042 273.62615,-6.7705716 325.35467,-6.4680742 l 47.19724,0.2759994 v 5.1809313 c 0,2.8495126 -0.18829,5.5327457 -0.41841,5.9627408 -0.4223,0.7890722 -9.98624,9.4791767 -11.19376,10.1710137 -0.47273,0.270847 -2.14836,-1.070173 -6.11136,-4.89098 -3.00303,-2.8952774 -5.73653,-5.2023563 -6.07446,-5.1268412 -0.33792,0.075515 -3.06866,2.4458859 -6.06832,5.2674902 l -5.45392,5.13019 -5.50278,-5.243373 c -3.02653,-2.8838547 -5.73209,-5.2433726 -6.01235,-5.2433726 -0.28026,0 -3.01338,2.3749036 -6.07359,5.2775636 l -5.56403,5.277563 -5.51718,-5.503929 C 305.5273,7.0397612 302.8771,4.5629931 302.6724,4.5629931 c -0.2047,0 -2.94987,2.4441406 -6.10039,5.4314239 l -5.72823,5.431424 -5.77726,-5.7644404 -5.77726,-5.76444 -5.77233,5.732158 -5.77232,5.7321574 z"
     id="path22" />
  <path
     style="fill:#1171c2;fill-opacity:1;stroke-width:0.452731"
     d="m 146.17944,9.529869 c -3.3904,-3.4032252 -5.7167,-5.3989821 -6.20095,-5.3198628 -0.42624,0.069642 -3.24448,2.4496318 -6.26277,5.2888665 l -5.48779,5.1622453 -5.73461,-5.6993865 -5.73461,-5.699387 -5.56113,5.4040033 c -3.05863,2.9722012 -5.72754,5.4040032 -5.93092,5.4040032 -0.20338,0 -2.90554,-2.423878 -6.004784,-5.3863951 L 93.626878,3.2975606 87.989006,8.662438 c -3.100829,2.950683 -5.79228,5.37456 -5.980997,5.386395 -0.188721,0.01183 -2.728507,-2.219502 -5.64397,-4.9585267 -2.915468,-2.7390245 -5.620094,-4.9800445 -6.010285,-4.9800445 -0.390191,0 -3.094817,2.24102 -6.010284,4.9800445 -2.915463,2.7390247 -5.422454,4.9800447 -5.571094,4.9800447 -0.148637,0 -2.839735,-2.429328 -5.980214,-5.3985052 L 47.082201,3.2733409 41.303508,8.708532 35.524818,14.143724 29.979539,9.1269929 C 26.929635,6.3677907 24.114474,4.1102618 23.723625,4.1102618 c -0.39085,0 -3.096015,2.24102 -6.011479,4.9800445 -2.915464,2.7390247 -5.458435,4.9800447 -5.651047,4.9800447 -0.192612,0 -2.724099,-2.393817 -5.6255263,-5.3195932 L 1.1602506,3.4311648 1.0066446,-1.8884281 0.85303872,-7.2080211 39.33843,-7.2120016 c 62.65835,-0.00648 299.72734,0.880127 317.02833,1.1856453 l 15.95878,0.2818162 v 4.9116478 c 0,4.8950976 -0.005,4.917305 -1.47138,6.5907307 -0.80925,0.9234959 -3.37301,3.3733264 -5.69724,5.4440676 -3.29412,2.934864 -4.39214,3.675955 -4.98004,3.361196 -0.4148,-0.222083 -2.98373,-2.461095 -5.70873,-4.9755827 -2.72501,-2.5144869 -5.22243,-4.5717949 -5.54982,-4.5717949 -0.56654,0 -7.50702,5.9953646 -9.41074,8.1292426 -2.00262,2.244726 -2.10604,2.203073 -7.79099,-3.13783 -2.92212,-2.7452772 -5.62537,-4.990297 -6.00721,-4.9889334 -0.38185,0.00136 -3.08746,2.2423832 -6.01247,4.9800444 -2.925,2.737661 -5.47494,4.977565 -5.66652,4.977565 -0.19158,0 -2.68457,-2.342884 -5.53997,-5.2064098 -2.85541,-2.8635255 -5.46036,-5.2064101 -5.78878,-5.2064101 -0.32842,0 -3.15067,2.3732669 -6.27166,5.2739264 l -5.67453,5.2739265 -5.73736,-5.7246223 -5.73736,-5.7246223 -5.76445,5.7644513 -5.76445,5.7644513 -3.96501,-3.84899 C 261.60607,9.2245696 258.95387,6.6881243 257.89305,5.7049689 L 255.96429,3.9174141 252.913,6.8459709 c -7.8784,7.5615201 -8.14585,7.7847681 -8.84988,7.3872671 -0.37918,-0.214089 -3.11893,-2.667444 -6.08833,-5.4518987 l -5.39891,-5.0626457 -3.58082,3.6246678 c -1.96946,1.9935675 -4.55333,4.4475306 -5.74193,5.4532526 l -2.16111,1.828584 -5.77449,-5.4332078 -5.77448,-5.4332077 -5.64635,5.3625924 c -3.10549,2.9494261 -5.80289,5.3713931 -5.99423,5.3821491 -0.19134,0.01076 -2.71974,-2.221462 -5.61866,-4.9604864 -2.89893,-2.7390245 -5.60141,-4.9800445 -6.00553,-4.9800445 -0.40411,0 -3.12013,2.24102 -6.03559,4.9800445 -2.91547,2.7390244 -5.45858,4.9800444 -5.65136,4.9800444 -0.19278,0 -2.68675,-2.342885 -5.54215,-5.2064101 -2.8554,-2.8635255 -5.49762,-5.2064101 -5.87158,-5.2064101 -0.37397,0 -3.1307,2.4448704 -6.12607,5.4330456 l -5.44612,5.4330456 z"
     id="path847" />
  <path
     style="fill:#1171c2;fill-opacity:1;stroke-width:0.452731"
     d="m 147.06972,10.402874 c -5.33984,-5.3878753 -6.73719,-6.4820762 -7.63575,-5.9792171 -0.35943,0.2011467 -3.02766,2.5870222 -5.92942,5.3019455 l -5.27591,4.9362246 -5.73496,-5.699741 -5.73497,-5.6997415 -5.56113,5.4040033 c -3.05863,2.9722012 -5.7393,5.4040032 -5.95706,5.4040032 -0.21775,0 -2.91033,-2.419313 -5.983507,-5.3762512 l -5.587596,-5.3762514 -5.71763,5.3762514 c -3.144699,2.9569382 -5.846509,5.3762512 -6.004023,5.3762512 -0.157514,0 -2.372212,-1.960527 -4.921551,-4.3567265 C 74.476869,7.3174249 71.932655,5.0529743 71.3724,4.6815114 70.060131,3.8114446 69.732915,4.0255336 63.681296,9.7136245 61.131957,12.109824 58.890937,14.06155 58.701252,14.050793 58.511571,14.040036 55.81552,11.61807 52.710027,8.6686436 L 47.06368,3.3060512 41.29239,8.7362491 35.521101,14.166447 30.642696,9.755225 C 24.248155,3.973062 24.005853,3.818208 22.703783,4.6815114 c -0.560255,0.3714629 -3.10447,2.6359135 -5.653811,5.0321131 -2.549341,2.3961995 -4.793545,4.3567265 -4.987121,4.3567265 -0.193576,0 -2.725851,-2.393817 -5.6272783,-5.3195932 L 1.1602506,3.4311648 1.0066446,-1.8884281 0.85303872,-7.2080211 39.564796,-7.2115494 c 62.996114,-0.00574 299.496474,0.8787205 316.801964,1.1847735 l 15.95878,0.2822358 v 4.9116478 c 0,4.8950976 -0.005,4.917305 -1.47138,6.5907307 -0.80925,0.9234959 -3.37301,3.3733264 -5.69724,5.4440676 -3.47222,3.093537 -4.37199,3.686776 -5.04527,3.326451 -0.45067,-0.241193 -2.72548,-2.199748 -5.05512,-4.352344 -6.00423,-5.5479085 -5.94889,-5.5184117 -7.74557,-4.1291224 -0.80861,0.6252636 -3.35588,2.8900606 -5.66059,5.0328824 -2.30471,2.142822 -4.29347,3.89604 -4.41946,3.89604 -0.12599,0 -2.3149,-1.960526 -4.86424,-4.356726 -2.54934,-2.3961994 -5.09355,-4.6606501 -5.65381,-5.032113 -1.30198,-0.8632454 -1.58129,-0.6802003 -7.69742,5.044446 -2.55282,2.389416 -4.7835,4.344393 -4.95707,4.344393 -0.17357,0 -2.68769,-2.342884 -5.58693,-5.2064098 -2.89923,-2.8635255 -5.49827,-5.2064101 -5.77564,-5.2064101 -0.27737,0 -3.07862,2.3720744 -6.22498,5.2712761 l -5.72067,5.2712758 -5.7347,-5.7219716 -5.73471,-5.721972 -5.76349,5.7634988 -5.7635,5.7634978 -3.28687,-3.16519 c -1.80779,-1.740856 -4.44311,-4.2624327 -5.85628,-5.6035053 l -2.5694,-2.4383135 -5.47171,5.1575636 c -3.00944,2.8366602 -5.66532,5.2228732 -5.90197,5.3026952 -0.38978,0.131474 -10.9201,-9.3012911 -11.58555,-10.3780038 -0.15424,-0.2495695 -2.80362,2.0016627 -5.88751,5.0027376 -3.0839,3.0010752 -5.76469,5.4524082 -5.95731,5.4474072 -0.19263,-0.005 -2.89674,-2.42165 -6.00914,-5.3703315 l -5.65891,-5.3612379 -5.70766,5.370331 c -3.13922,2.9536824 -5.84113,5.3703314 -6.00425,5.3703314 -0.16313,0 -2.38242,-1.960527 -4.93176,-4.356726 -6.05162,-5.6880911 -6.37884,-5.90218 -7.6911,-5.0321133 -0.56026,0.3714629 -3.10447,2.6359135 -5.65382,5.0321133 -2.54934,2.396199 -4.78002,4.356726 -4.95707,4.356726 -0.17705,0 -2.69401,-2.342885 -5.59324,-5.2064101 -2.89923,-2.8635255 -5.52548,-5.2064101 -5.8361,-5.2064101 -0.31062,0 -3.05198,2.438654 -6.09191,5.4192314 l -5.52714,5.4192318 z"
     id="path849" />
</svg>
