<svg width="60" height="60" fill="none" xmlns="http://www.w3.org/2000/svg"><g clip-path="url(#clip0)"><path d="M8.018 59.902a.94.94 0 001.259-.42l5.256-10.514 18.885 6.569.005.001.887.309-1.398 2.795a.938.938 0 001.677.84l1.875-3.75c.008-.017.007-.034.014-.05.01-.022.024-.04.033-.062.014-.04.008-.082.017-.123a.8.8 0 00.025-.187c0-.06-.011-.117-.021-.176-.013-.059-.023-.116-.046-.172-.024-.056-.055-.103-.087-.154-.033-.05-.064-.098-.107-.142-.044-.044-.094-.078-.145-.114-.035-.023-.06-.059-.101-.079-.02-.009-.04-.008-.06-.016-.019-.008-.031-.024-.052-.03l-.54-.188 10.022-11.114h.522a2.816 2.816 0 002.812-2.813 3.754 3.754 0 003.75-3.75 3.725 3.725 0 00-1.297-2.812 3.728 3.728 0 001.297-2.813 3.727 3.727 0 00-1.296-2.813 3.727 3.727 0 001.296-2.812 3.727 3.727 0 00-1.296-2.813 3.723 3.723 0 001.296-2.811 3.754 3.754 0 00-3.75-3.75V2.812A2.816 2.816 0 0045.937 0h-22.5a2.816 2.816 0 00-2.812 2.813v16.04a6.539 6.539 0 00-4.688-1.978.937.937 0 00-.937.938v29.333l-.63-.218c-.042-.015-.084-.01-.127-.018-.06-.012-.12-.025-.18-.025-.061 0-.12.012-.179.023-.059.012-.115.022-.171.046-.054.021-.1.053-.15.085a.921.921 0 00-.147.109c-.043.042-.076.092-.111.142-.025.036-.06.062-.08.102l-5.626 11.25a.938.938 0 00.42 1.26zM48.75 38.437h-.938a1.877 1.877 0 01-1.874-1.874c0-1.033.839-1.873 1.87-1.876l.005.001h.937a1.876 1.876 0 010 3.75zm1.875-7.5c0 1.034-.84 1.875-1.875 1.875h-.942a1.876 1.876 0 01-1.87-1.874c0-1.034.84-1.875 1.874-1.875l.01-.001h.928c1.034 0 1.875.84 1.875 1.875zm-2.813-3.75h-.006a1.877 1.877 0 01-1.868-1.875c0-1.034.84-1.875 1.874-1.875h.945a1.877 1.877 0 011.868 1.875c0 1.034-.84 1.875-1.875 1.875h-.938zm2.813-7.5a1.877 1.877 0 01-1.87 1.875h-.005l-.01.002h-.923l-.005-.002a1.877 1.877 0 01-1.874-1.875c0-1.034.84-1.875 1.874-1.875h.938c1.034 0 1.875.841 1.875 1.875zM22.5 2.813c0-.516.42-.937.938-.937h22.5c.517 0 .937.42.937.938V16.07c-1.613.419-2.813 1.875-2.813 3.616 0 1.126.51 2.126 1.297 2.813a3.727 3.727 0 00-1.297 2.813c0 1.125.509 2.124 1.296 2.812a3.727 3.727 0 00-1.295 2.813c0 1.125.508 2.124 1.295 2.811a3.73 3.73 0 00-1.295 2.813c0 1.742 1.199 3.198 2.812 3.617v.133c0 .518-.42.938-.938.938h-22.5a.938.938 0 01-.937-.938v-37.5zm-5.625 16.033a4.695 4.695 0 013.75 4.593v16.875a2.816 2.816 0 002.813 2.812h19.454l-9.421 10.447-16.596-5.774V18.845z" fill="#fff"/><path d="M15.956 53.438a.933.933 0 00-.932.937.94.94 0 001.88 0 .937.937 0 00-.937-.938h-.01zm18.732-18.75a2.816 2.816 0 00-2.813 2.812 2.816 2.816 0 002.813 2.813A2.816 2.816 0 0037.5 37.5a2.816 2.816 0 00-2.813-2.813zm0 3.75a.938.938 0 110-1.876.938.938 0 010 1.876zm-1.75-32.813h2.812a.937.937 0 100-1.875h-2.813a.937.937 0 100 1.875z" fill="#fff"/><path d="M29.123 13.849a.7.7 0 01.351.094l11.231 6.503a.702.702 0 010 1.214l-11.23 6.502a.701.701 0 01-1.054-.607V14.55a.702.702 0 01.702-.701zm5.819 8.196l-3.157 3.157 4-2.316-.843-.842v.001zm-5.117-5.12v8.253l4.126-4.127-4.127-4.126zm7.216 3.02l-1.107 1.108 1.107 1.107 1.912-1.107-1.912-1.108zM31.785 16.9l3.158 3.158.842-.842-4-2.316z" fill="#FAFAFA"/></g><defs><clipPath id="clip0"><path fill="#fff" d="M0 0h60v60H0z"/></clipPath></defs></svg>