<svg width="126" height="38" fill="none" xmlns="http://www.w3.org/2000/svg"><path d="M121.333 37.333H4.667A4.68 4.68 0 010 32.666v-28A4.68 4.68 0 014.667 0h116.666A4.68 4.68 0 01126 4.666v28a4.68 4.68 0 01-4.667 4.667z" fill="#000"/><path d="M121.333 0H4.667A4.68 4.68 0 000 4.666v28a4.68 4.68 0 004.667 4.667h116.666A4.68 4.68 0 00126 32.666v-28A4.68 4.68 0 00121.333 0zm0 .746a3.924 3.924 0 013.92 3.92v28a3.924 3.924 0 01-3.92 3.92H4.667a3.925 3.925 0 01-3.92-3.92v-28a3.925 3.925 0 013.92-3.92h116.666z" fill="#A6A6A6"/><path d="M99.807 28h1.742V16.332h-1.742V28zm15.686-7.465l-1.996 5.058h-.06l-2.072-5.058h-1.876l3.107 7.07-1.771 3.933h1.817l4.788-11.003h-1.937zm-9.876 6.14c-.571 0-1.366-.286-1.366-.991 0-.901.991-1.246 1.846-1.246.766 0 1.125.165 1.591.39a2.111 2.111 0 01-2.071 1.846zm.21-6.395c-1.261 0-2.567.555-3.107 1.786l1.545.646c.331-.646.946-.856 1.592-.856.9 0 1.816.54 1.831 1.501v.12c-.315-.18-.99-.45-1.816-.45-1.666 0-3.363.915-3.363 2.627 0 1.56 1.366 2.567 2.897 2.567 1.171 0 1.816-.526 2.222-1.141h.06v.9h1.681v-4.473c0-2.071-1.546-3.227-3.542-3.227zm-10.763 1.675h-2.477v-4h2.477c1.302 0 2.04 1.079 2.04 2 0 .905-.738 2-2.04 2zm-.045-5.623h-4.173V28h1.74v-4.42h2.433c1.93 0 3.828-1.398 3.828-3.624 0-2.227-1.898-3.624-3.828-3.624zM72.263 26.677c-1.203 0-2.21-1.008-2.21-2.391 0-1.398 1.007-2.421 2.21-2.421 1.188 0 2.12 1.023 2.12 2.42 0 1.384-.932 2.392-2.12 2.392zm2-5.489h-.06c-.39-.466-1.143-.887-2.09-.887-1.985 0-3.804 1.744-3.804 3.985 0 2.225 1.819 3.954 3.804 3.954.947 0 1.7-.42 2.09-.902h.06v.572c0 1.519-.812 2.33-2.12 2.33-1.067 0-1.73-.767-2-1.413l-1.519.631c.437 1.053 1.594 2.346 3.519 2.346 2.045 0 3.774-1.203 3.774-4.135v-7.127h-1.654v.646zM77.12 28h1.744V16.332H77.12V28zm4.316-3.85c-.046-1.533 1.187-2.315 2.074-2.315.692 0 1.279.346 1.474.842l-3.548 1.474zm5.412-1.323c-.33-.887-1.338-2.526-3.398-2.526-2.045 0-3.744 1.61-3.744 3.97 0 2.225 1.684 3.97 3.94 3.97 1.82 0 2.872-1.113 3.308-1.76l-1.353-.902c-.451.662-1.068 1.098-1.955 1.098s-1.519-.406-1.925-1.203l5.308-2.196-.18-.45zM44.562 21.52v1.684h4.03c-.12.948-.437 1.64-.918 2.12-.586.587-1.503 1.233-3.112 1.233-2.481 0-4.42-2-4.42-4.48 0-2.481 1.939-4.481 4.42-4.481 1.338 0 2.315.526 3.037 1.203l1.188-1.188c-1.007-.963-2.346-1.7-4.225-1.7-3.398 0-6.255 2.767-6.255 6.166 0 3.398 2.857 6.164 6.255 6.164 1.834 0 3.218-.6 4.3-1.729 1.113-1.113 1.459-2.676 1.459-3.94 0-.39-.03-.75-.09-1.052h-5.67zm10.34 5.158c-1.203 0-2.24-.993-2.24-2.406 0-1.429 1.037-2.406 2.24-2.406 1.203 0 2.24.977 2.24 2.406 0 1.413-1.037 2.406-2.24 2.406zm0-6.376c-2.195 0-3.985 1.67-3.985 3.97 0 2.285 1.79 3.97 3.985 3.97s3.985-1.685 3.985-3.97c0-2.3-1.79-3.97-3.985-3.97zm8.692 6.376c-1.202 0-2.24-.993-2.24-2.406 0-1.429 1.038-2.406 2.24-2.406 1.203 0 2.24.977 2.24 2.406 0 1.413-1.037 2.406-2.24 2.406zm0-6.376c-2.195 0-3.984 1.67-3.984 3.97 0 2.285 1.789 3.97 3.984 3.97 2.196 0 3.985-1.685 3.985-3.97 0-2.3-1.79-3.97-3.985-3.97z" fill="#fff"/><path d="M9.81 30.23l-.07-.066c-.272-.288-.432-.734-.432-1.312v.136V8.342v.141c0-.625.187-1.097.5-1.38l11.564 11.564L9.809 30.23zM9.307 8.34zm.004-.152v-.002.002zm0-.007z" fill="url(#paint0_linear)"/><path d="M25.226 22.66l.088-.05 4.567-2.595c.435-.248.725-.548.87-.865-.145.317-.435.618-.87.865l-4.567 2.595-.088.05zm.001-.137l-3.855-3.856 3.855-3.855 4.654 2.644c.59.336.922.769.978 1.21v.003c-.056.44-.388.874-.979 1.21l-4.653 2.644z" fill="url(#paint1_linear)"/><path d="M10.633 30.67zm0-.136a1.2 1.2 0 01-.824-.304l11.563-11.563 3.855 3.856-13.547 7.698c-.375.212-.73.313-1.046.313zm-.827-.17a1.254 1.254 0 01-.06-.058l.06.059z" fill="url(#paint2_linear)"/><path d="M21.372 18.667L9.808 7.103c.22-.197.501-.302.824-.302.316 0 .672.1 1.047.313l13.548 7.698-3.855 3.855zm3.942-3.942L11.679 6.978c-.375-.213-.73-.314-1.047-.314h-.004.005c.316 0 .671.1 1.046.314l13.635 7.747z" fill="url(#paint3_linear)"/><path d="M10.72 30.668c.293-.017.618-.118.96-.311l13.546-7.697-13.547 7.697c-.34.194-.666.294-.96.311zm-.911-.301l-.003-.003a.02.02 0 01.003.003zm-.063-.061L9.74 30.3l.006.006z" fill="#000"/><path d="M25.226 22.66l.088-.05-.088.05z" fill="url(#paint4_linear)"/><path d="M10.634 30.67c-.323 0-.605-.105-.825-.303a.02.02 0 00-.003-.002l-.06-.06-.006-.005.07-.07a1.2 1.2 0 00.824.304c.315 0 .67-.1 1.045-.313l13.548-7.698.087.087-.088.05-13.547 7.697c-.341.194-.666.294-.96.311a1.762 1.762 0 01-.085.002z" fill="url(#paint5_linear)"/><path d="M9.74 30.3c-.272-.288-.432-.734-.432-1.312 0 .578.16 1.024.432 1.311z" fill="#000"/><path d="M9.74 30.3c-.272-.288-.432-.734-.432-1.312v-.136c0 .578.16 1.024.432 1.311l.07.067-.07.07z" fill="url(#paint6_linear)"/><path d="M9.74 30.3l.07-.07-.07.07z" fill="url(#paint7_linear)"/><path d="M30.75 19.15c.073-.158.109-.32.109-.481v-.001c0 .162-.036.324-.108.482z" fill="#000"/><path d="M25.314 22.61l-.087-.087 4.653-2.644c.591-.336.923-.77.979-1.21 0 .162-.037.323-.108.481-.145.318-.435.618-.87.865l-4.567 2.595z" fill="url(#paint8_linear)"/><path d="M30.859 18.667c0-.489-.327-.977-.979-1.347l-4.566-2.595 4.566 2.594c.653.37.98.86.979 1.348z" fill="#404040"/><path d="M30.859 18.666c-.056-.442-.388-.875-.979-1.21l-4.653-2.644.086-.087 4.567 2.595c.652.37.978.858.979 1.346z" fill="url(#paint9_linear)"/><path d="M9.308 8.342V8.34zm.004-.152v-.002.002zm0-.004V8.18v.005zm0-.006c.054-.959.576-1.512 1.313-1.516a1.2 1.2 0 00-.816.304l-.003.002c-.023.02-.045.043-.066.065-.245.26-.4.648-.428 1.145z" fill="#404040"/><path d="M9.308 8.483v-.142c0-.052.001-.102.004-.151v-.01c.028-.498.183-.886.428-1.145l.068.068c-.313.283-.5.754-.5 1.38zm.498-1.513l.003-.003-.003.003z" fill="url(#paint10_linear)"/><path d="M25.227 14.812L11.679 7.115c-.375-.213-.73-.314-1.047-.314-.323 0-.604.105-.824.303l-.068-.069c.021-.022.043-.044.066-.065l.003-.002a1.2 1.2 0 01.816-.304h.007c.316 0 .672.101 1.047.314l13.635 7.747-.087.087z" fill="url(#paint11_linear)"/><path d="M40.597 9.302c.01.886-.167 1.6-.532 2.143h2.832V7.22h-2.3V9.3zm-1.29 4.02h-.689v-1.877h.548c.485-.418.722-1.132.712-2.143v-2.77h3.739v4.913h.625v1.876h-.688v-1.188h-4.248v1.188z" fill="#fff"/><path d="M40.597 9.302l-.094.001.001.076c0 .838-.175 1.507-.516 2.014l-.098.146h3.1V7.128h-2.487v2.175h.187v-1.99h2.113v4.038h-2.738v.093l.078.052c.367-.546.548-1.255.548-2.118L40.69 9.3l-.093.001h.093-.093zm-1.29 4.02v-.094h-.596v-1.69h.489l.027-.022c.504-.435.744-1.16.744-2.153v-.062.001-2.675h3.552v4.912h.625v1.69h-.501V12.04h-4.434v1.282h.093v-.094.094h.093v-1.095h4.061v1.188h.875v-2.063h-.625V6.44h-3.926v2.923c0 .966-.234 1.629-.68 2.011l.062.071v-.093h-.641v2.063h.874v-.093h-.093zm6.972-2.382c.415.42.921.63 1.521.63.6 0 1.107-.21 1.521-.63.415-.419.623-.955.623-1.607 0-.651-.208-1.188-.623-1.607a2.054 2.054 0 00-1.52-.63c-.6 0-1.107.21-1.522.63-.414.42-.622.956-.622 1.607 0 .652.208 1.188.622 1.608zm3.574.47c-.55.566-1.234.848-2.053.848-.818 0-1.503-.282-2.052-.848-.551-.566-.825-1.258-.825-2.077 0-.818.274-1.51.825-2.076.549-.566 1.234-.85 2.052-.85.814 0 1.497.285 2.05.854.552.568.828 1.259.828 2.072 0 .819-.275 1.511-.825 2.076z" fill="#fff"/><path d="M46.279 10.94l-.067.066c.43.437.966.658 1.588.657a2.148 2.148 0 001.588-.657c.432-.437.65-1.002.65-1.673s-.218-1.236-.65-1.673a2.148 2.148 0 00-1.588-.657 2.15 2.15 0 00-1.588.657c-.431.437-.649 1.002-.648 1.673 0 .671.217 1.236.648 1.673l.067-.065.066-.066c-.395-.403-.593-.91-.594-1.542 0-.632.199-1.139.595-1.542.399-.403.876-.6 1.454-.601a1.96 1.96 0 011.455.601l.001.002-.001-.002c.397.403.594.91.596 1.542-.002.632-.2 1.14-.596 1.542a1.96 1.96 0 01-1.455.602 1.963 1.963 0 01-1.455-.602l-.066.066zm3.574.47l-.066-.065c-.535.548-1.19.819-1.987.82-.797-.001-1.452-.272-1.986-.82-.533-.55-.797-1.214-.798-2.012 0-.798.265-1.461.798-2.011.534-.549 1.189-.82 1.986-.82.792 0 1.445.273 1.983.824.536.552.801 1.215.802 2.007 0 .798-.265 1.461-.798 2.012l.066.064.068.065c.565-.58.852-1.302.85-2.14.002-.835-.285-1.555-.854-2.138-.569-.586-1.281-.883-2.117-.882-.84 0-1.554.294-2.12.878-.566.581-.852 1.302-.85 2.141-.002.84.284 1.56.85 2.142.566.583 1.28.877 2.12.877.84 0 1.554-.294 2.12-.878l-.067-.065zm4.447.848c-.823 0-1.514-.279-2.072-.837-.559-.558-.837-1.254-.837-2.088 0-.834.278-1.53.837-2.088.558-.558 1.249-.837 2.073-.837.844 0 1.53.305 2.057.915l-.502.485c-.38-.475-.9-.712-1.555-.712-.611 0-1.126.206-1.546.618-.42.412-.63.952-.63 1.62 0 .666.21 1.206.63 1.618.42.412.935.618 1.546.618.672 0 1.245-.271 1.72-.813l.5.5a2.721 2.721 0 01-.962.731c-.385.18-.805.27-1.258.27z" fill="#fff"/><path d="M54.3 12.258v-.093c-.802-.001-1.464-.27-2.006-.81-.541-.541-.809-1.208-.81-2.022.001-.813.269-1.48.81-2.022.542-.54 1.204-.809 2.007-.81.822.002 1.475.292 1.986.883l.07-.061-.064-.067-.502.485.065.067.073-.058c-.396-.497-.95-.748-1.628-.747-.632 0-1.176.216-1.61.645-.44.43-.66.999-.658 1.685-.002.686.218 1.256.657 1.686.435.428.979.645 1.61.644.699.001 1.304-.285 1.792-.845l-.07-.061-.066.066.5.5.066-.066-.072-.06a2.63 2.63 0 01-.93.707 2.847 2.847 0 01-1.22.26v.188c.466 0 .9-.093 1.299-.28.398-.184.73-.436.995-.755l.054-.065-.56-.561-.071-.07-.066.074c-.461.526-1.003.78-1.65.782-.59-.002-1.076-.196-1.48-.592-.401-.394-.601-.904-.602-1.552.001-.648.2-1.157.602-1.552.404-.395.89-.59 1.48-.591.634.001 1.118.224 1.482.676l.065.08.575-.556.063-.061-.058-.067c-.542-.63-1.261-.949-2.127-.948-.845 0-1.566.29-2.139.865-.576.574-.865 1.3-.864 2.154-.001.855.288 1.58.864 2.155.574.574 1.294.864 2.139.864v-.094zm5.132-.125h-.72V7.22h-1.564v-.688h3.848v.688h-1.564v4.912z" fill="#fff"/><path d="M59.432 12.133v-.093h-.626V7.128h-1.564v-.501h3.66v.5H59.34v5.006h.093v-.093.093h.093V7.315h1.565V6.44h-4.035v.875h1.564v4.912h.905v-.094h-.093zm6.505-5.6l-2.12 4.724c-.292.668-.726 1.001-1.305 1.001a1.43 1.43 0 01-.556-.125l.188-.665a.75.75 0 00.375.102.672.672 0 00.388-.097c.09-.066.175-.185.254-.357l.203-.446-1.885-4.137h.845l1.384 3.215h.031l1.352-3.215h.846z" fill="#fff"/><path d="M65.937 6.533l-.085-.038-2.12 4.724c-.288.648-.681.943-1.22.946-.157 0-.33-.038-.52-.118l-.036.086.09.026.187-.665-.09-.026-.045.081a.842.842 0 00.421.114c.178 0 .328-.034.442-.115.112-.081.202-.213.285-.393l.203-.446.018-.039-1.843-4.044h.639l1.384 3.215h.154l1.353-3.215h.783v-.093l-.085-.038.085.038V6.44h-.907l-1.377 3.272.086.036v-.094h-.03v.094l.085-.037-1.408-3.271h-1.052l1.927 4.23-.185.408c-.074.163-.154.27-.224.318-.068.05-.177.08-.333.08a.656.656 0 01-.33-.09l-.103-.057-.22.779-.022.08.076.031c.207.087.404.133.592.133.618.002 1.094-.37 1.391-1.057L66.08 6.44h-.144v.093zm.814 5.6v-5.6h4.052v5.6h-.72V7.22H67.47v4.912h-.719z" fill="#fff"/><path d="M66.751 12.133h.094V6.627h3.865v5.413h-.533V7.128h-2.8v4.912h-.626v.093h.094-.094v.094h.813V7.315h2.426v4.912h.907V6.44h-4.239v5.787h.093v-.094zm5.334 0v-5.6h.72v2.4h2.8v-2.4h.72v5.6h-.72V9.606h-2.8v2.527h-.72z" fill="#fff"/><path d="M72.085 12.133h.094V6.627h.532v2.4h2.987v-2.4h.534v5.413h-.534V9.513h-2.987v2.527h-.626v.093h.094-.094v.094h.813V9.7h2.613v2.527h.907V6.44h-.907v2.4h-2.613v-2.4h-.906v5.787h.093v-.094zm6.527-1.193c.415.42.922.63 1.522.63s1.107-.21 1.52-.63c.415-.419.623-.955.623-1.607 0-.651-.208-1.188-.622-1.607a2.054 2.054 0 00-1.522-.63c-.6 0-1.106.21-1.52.63-.414.42-.623.956-.623 1.607 0 .652.209 1.188.622 1.608zm3.575.47c-.55.566-1.235.848-2.053.848-.819 0-1.503-.282-2.053-.848-.55-.566-.825-1.258-.825-2.077 0-.818.274-1.51.825-2.076.55-.566 1.234-.85 2.052-.85.815 0 1.497.285 2.05.854.552.568.829 1.259.829 2.072 0 .819-.275 1.511-.825 2.076z" fill="#fff"/><path d="M78.612 10.94l-.066.066c.43.437.966.658 1.588.657a2.15 2.15 0 001.587-.657c.433-.437.65-1.002.65-1.673s-.217-1.236-.65-1.673a2.15 2.15 0 00-1.587-.657 2.15 2.15 0 00-1.588.657c-.432.437-.65 1.002-.649 1.673 0 .671.217 1.236.649 1.673l.066-.065.067-.066c-.396-.403-.594-.91-.595-1.542.001-.632.199-1.139.595-1.542.4-.403.877-.6 1.455-.601a1.96 1.96 0 011.454.601l.003.003-.003-.003c.397.403.595.91.596 1.542 0 .632-.199 1.14-.596 1.542a1.96 1.96 0 01-1.454.602 1.962 1.962 0 01-1.455-.602l-.067.066zm3.575.47l-.067-.065c-.535.548-1.19.819-1.986.82-.797-.001-1.452-.272-1.986-.82l-.003-.003.003.003c-.534-.55-.798-1.214-.799-2.012.001-.798.265-1.461.8-2.011.533-.549 1.188-.82 1.985-.82.792 0 1.445.273 1.983.824.536.552.8 1.215.802 2.007-.001.798-.266 1.461-.799 2.012l.067.064.067.065c.566-.58.852-1.302.851-2.14.001-.835-.286-1.555-.855-2.138-.568-.586-1.28-.883-2.116-.882-.84 0-1.555.294-2.12.878-.567.581-.852 1.302-.851 2.141-.001.84.284 1.56.85 2.142.566.583 1.28.877 2.12.877.84 0 1.555-.294 2.121-.878l-.067-.065zm4.486.035h1.448c.276 0 .5-.097.672-.29a.931.931 0 00.258-.634.904.904 0 00-.266-.629.907.907 0 00-.696-.286h-1.416v1.839zm0-2.511h1.307c.271 0 .489-.09.653-.27a.857.857 0 00.246-.59.855.855 0 00-.239-.587.803.803 0 00-.629-.266h-1.338v1.713zm-.719 3.199v-5.6h2.026c.437 0 .817.145 1.137.434.322.29.482.653.482 1.09 0 .267-.07.501-.208.705a1.297 1.297 0 01-.55.461v.031c.275.094.502.256.68.485.176.23.266.496.266.798 0 .459-.168.84-.505 1.142a1.723 1.723 0 01-1.193.454h-2.135z" fill="#fff"/><path d="M86.673 11.445v.094h1.448a.952.952 0 00.742-.322 1.03 1.03 0 00.282-.695.999.999 0 00-.292-.693 1 1 0 00-.764-.316h-1.51v2.026h.094v-.094h.093V9.7h1.323c.267.001.468.086.628.256.164.178.24.361.24.566a.838.838 0 01-.233.571.764.764 0 01-.603.259h-1.448v.093h.093-.093zm0-2.511v.093h1.307c.291.001.541-.1.722-.3a.957.957 0 00.27-.653.953.953 0 00-.262-.649.896.896 0 00-.698-.297H86.58v1.9h.093v-.094h.093v-1.62h1.245c.24.002.418.079.56.236a.765.765 0 01.215.524.767.767 0 01-.222.527c-.147.16-.333.239-.584.24h-1.307v.093h.093-.093zm-.719 3.2h.094V6.626h1.932c.417 0 .77.135 1.075.41.303.274.45.606.45 1.021 0 .25-.064.464-.19.652-.13.19-.298.33-.514.429l-.054.025v.158l.063.021c.26.09.47.238.637.454v.001-.001c.164.214.246.457.246.74a1.374 1.374 0 01-.474 1.073 1.63 1.63 0 01-1.13.43h-2.135v.093h.094-.094v.094h2.135c.48 0 .903-.16 1.255-.478.355-.317.537-.73.536-1.211a1.36 1.36 0 00-.286-.855v-.001a1.514 1.514 0 00-.724-.515l-.03.088h.094v-.031h-.094l.039.085a1.39 1.39 0 00.59-.495c.149-.218.223-.474.223-.756a1.501 1.501 0 00-.512-1.16l-.002-.002.002.002a1.738 1.738 0 00-1.2-.458h-2.12v5.787h.093v-.094z" fill="#fff"/><defs><linearGradient id="paint0_linear" x1="20.346" y1="8.129" x2="4.683" y2="23.793" gradientUnits="userSpaceOnUse"><stop stop-color="#00A0FF"/><stop offset=".007" stop-color="#00A1FF"/><stop offset=".26" stop-color="#00BEFF"/><stop offset=".512" stop-color="#00D2FF"/><stop offset=".76" stop-color="#00DFFF"/><stop offset="1" stop-color="#00E3FF"/></linearGradient><linearGradient id="paint1_linear" x1="31.579" y1="18.668" x2="8.995" y2="18.668" gradientUnits="userSpaceOnUse"><stop stop-color="#FFE000"/><stop offset=".409" stop-color="#FFBD00"/><stop offset=".775" stop-color="orange"/><stop offset="1" stop-color="#FF9C00"/></linearGradient><linearGradient id="paint2_linear" x1="23.172" y1="20.81" x2="1.931" y2="42.051" gradientUnits="userSpaceOnUse"><stop stop-color="#FF3A44"/><stop offset="1" stop-color="#C31162"/></linearGradient><linearGradient id="paint3_linear" x1="6.811" y1=".164" x2="16.296" y2="9.649" gradientUnits="userSpaceOnUse"><stop stop-color="#32A071"/><stop offset=".069" stop-color="#2DA771"/><stop offset=".476" stop-color="#15CF74"/><stop offset=".801" stop-color="#06E775"/><stop offset="1" stop-color="#00F076"/></linearGradient><linearGradient id="paint4_linear" x1="31.579" y1="18.668" x2="8.995" y2="18.668" gradientUnits="userSpaceOnUse"><stop stop-color="#CCB300"/><stop offset=".409" stop-color="#CC9700"/><stop offset=".775" stop-color="#CC8400"/><stop offset="1" stop-color="#CC7D00"/></linearGradient><linearGradient id="paint5_linear" x1="23.172" y1="20.81" x2="1.931" y2="42.051" gradientUnits="userSpaceOnUse"><stop stop-color="#CC2E36"/><stop offset="1" stop-color="#9C0E4E"/></linearGradient><linearGradient id="paint6_linear" x1="20.346" y1="8.129" x2="4.683" y2="23.792" gradientUnits="userSpaceOnUse"><stop stop-color="#008DE0"/><stop offset=".007" stop-color="#008DE0"/><stop offset=".26" stop-color="#00A7E0"/><stop offset=".512" stop-color="#00B8E0"/><stop offset=".76" stop-color="#00C4E0"/><stop offset="1" stop-color="#00C7E0"/></linearGradient><linearGradient id="paint7_linear" x1="23.172" y1="20.809" x2="1.931" y2="42.051" gradientUnits="userSpaceOnUse"><stop stop-color="#E0333C"/><stop offset="1" stop-color="#AB0F56"/></linearGradient><linearGradient id="paint8_linear" x1="31.579" y1="18.668" x2="8.995" y2="18.668" gradientUnits="userSpaceOnUse"><stop stop-color="#E0C500"/><stop offset=".409" stop-color="#E0A600"/><stop offset=".775" stop-color="#E09100"/><stop offset="1" stop-color="#E08900"/></linearGradient><linearGradient id="paint9_linear" x1="31.579" y1="18.667" x2="8.995" y2="18.667" gradientUnits="userSpaceOnUse"><stop stop-color="#FFE840"/><stop offset=".409" stop-color="#FFCE40"/><stop offset=".775" stop-color="#FFBC40"/><stop offset="1" stop-color="#FFB540"/></linearGradient><linearGradient id="paint10_linear" x1="20.346" y1="8.128" x2="4.683" y2="23.792" gradientUnits="userSpaceOnUse"><stop stop-color="#40B8FF"/><stop offset=".007" stop-color="#40B9FF"/><stop offset=".26" stop-color="#40CEFF"/><stop offset=".512" stop-color="#40DDFF"/><stop offset=".76" stop-color="#40E7FF"/><stop offset="1" stop-color="#40EAFF"/></linearGradient><linearGradient id="paint11_linear" x1="6.811" y1=".164" x2="16.296" y2="9.649" gradientUnits="userSpaceOnUse"><stop stop-color="#65B895"/><stop offset=".069" stop-color="#62BD95"/><stop offset=".476" stop-color="#50DB97"/><stop offset=".801" stop-color="#44ED98"/><stop offset="1" stop-color="#40F498"/></linearGradient></defs></svg>