<svg width="30" height="30" fill="none" xmlns="http://www.w3.org/2000/svg"><path d="M14.91 15.244a4.484 4.484 0 004.496-4.496 4.484 4.484 0 00-4.496-4.496c-2.444 0-4.497 2.053-4.497 4.496a4.484 4.484 0 004.496 4.496zm0-6.353c1.075 0 1.857.88 1.857 1.857 0 1.075-.88 1.857-1.857 1.857a1.856 1.856 0 01-1.858-1.857c0-1.075.782-1.857 1.857-1.857zm1.857 10.067a8.835 8.835 0 002.639-1.075c.586-.39.782-1.173.39-1.857-.39-.586-1.172-.782-1.857-.391a5.827 5.827 0 01-6.157 0c-.587-.39-1.466-.195-1.857.391-.391.587-.196 1.466.39 1.857.783.489 1.76.88 2.64 1.075L10.413 21.5c-.488.488-.488 1.368 0 1.857.293.293.587.39.978.39a1.4 1.4 0 00.977-.39l2.541-2.542 2.542 2.542c.488.488 1.368.488 1.857 0 .489-.489.489-1.369 0-1.857l-2.541-2.542z" fill="#1171C2"/></svg>