<svg width="30" height="30" fill="none" xmlns="http://www.w3.org/2000/svg"><path d="M15 14.7c2.6 0 4.6-2.1 4.6-4.6 0-2.6-2.1-4.6-4.6-4.6-2.5 0-4.6 2.1-4.6 4.6 0 2.5 2 4.6 4.6 4.6zm0-6.5c1.1 0 1.9.9 1.9 1.9 0 1.1-.9 1.9-1.9 1.9-1.1 0-1.9-.9-1.9-1.9 0-1.1.8-1.9 1.9-1.9zm1.9 10.3c.9-.2 1.9-.6 2.7-1.1.6-.4.8-1.2.4-1.9-.4-.6-1.2-.8-1.9-.4-1.9 1.2-4.4 1.2-6.3 0-.6-.4-1.5-.2-1.9.4-.4.6-.2 1.5.4 1.9.8.5 1.8.9 2.7 1.1l-2.6 2.6c-.5.5-.5 1.4 0 1.9.3.3.6.4 1 .4.3 0 .7-.1 1-.4l2.6-2.6 2.6 2.6c.5.5 1.4.5 1.9 0s.5-1.4 0-1.9l-2.6-2.6z" fill="#F4F4F4"/></svg>