<svg width="24" height="24" fill="none" xmlns="http://www.w3.org/2000/svg"><path d="M19.668 4.002c-.222.016-.44.067-.646.152h-.003c-.197.078-1.138.47-2.56 1.06l-5.115 2.13C7.676 8.87 4.07 10.375 4.07 10.375l.043-.016c-.18.063-.351.15-.509.257a1.4 1.4 0 00-.406.388c-.152.223-.22.492-.192.76a1.37 1.37 0 00.62.956c.142.1.297.182.46.243h.003L7.47 14.09c.152.482 1.031 3.34 1.242 4 .079.297.214.578.398.826.071.096.16.177.262.241a.772.772 0 00.17.073l-.035-.008a.25.25 0 01.027.013.545.545 0 00.081.016 1.156 1.156 0 00.97-.168l.025-.019 1.996-1.799 3.347 2.54.076.032a1.795 1.795 0 001.777-.163c.227-.183.406-.417.522-.683l.024-.061 2.585-13.107c.08-.301.084-.617.01-.92a1.24 1.24 0 00-.54-.718 1.307 1.307 0 00-.739-.183zm-.07 1.407a.393.393 0 01-.014.12v.009l-2.56 12.97a.293.293 0 01-.082.1c-.054.042-.097.069-.322-.02l-4.093-3.104-2.472 2.23.521-3.282 6.687-6.167c.276-.255.184-.308.184-.308.019-.31-.417-.091-.417-.091l-8.436 5.165-.003-.013-4.04-1.346v-.003l-.011-.003a.187.187 0 00.021-.008l.022-.01.022-.009 7.277-3.033c1.838-.765 3.688-1.536 5.11-2.13a397.93 397.93 0 012.535-1.05c.06-.023.03-.02.069-.02l.002.003z" fill="#08C"/></svg>