<svg width="30" height="30" fill="none" xmlns="http://www.w3.org/2000/svg"><path d="M23.393 20H21.44c-.744 0-.93-.564-2.325-1.974-1.21-1.129-1.675-1.317-1.954-1.317-.372 0-.558.094-.558.659v1.786c0 .47-.186.752-1.395.752-2.046 0-4.371-1.316-6.046-3.667C6.744 12.761 6 10.13 6 9.564 6 9.282 6.093 9 6.651 9h1.953c.465 0 .651.188.837.752.93 2.82 2.605 5.36 3.256 5.36.279 0 .372-.095.372-.753v-2.915c-.093-1.316-.744-1.504-.744-1.974 0-.188.186-.47.465-.47h3.07c.464 0 .557.188.557.752v3.949c0 .47.186.564.28.564.278 0 .464-.188.93-.658 1.395-1.598 2.418-4.043 2.418-4.043.093-.282.372-.564.837-.564h1.953c.558 0 .744.282.558.752-.279 1.128-2.697 4.607-2.697 4.607-.186.376-.28.47 0 .846.186.282.93.846 1.395 1.41.837.94 1.488 1.787 1.674 2.35.465.753.186 1.035-.372 1.035z" fill="#F4F4F4"/></svg>